<svg id="svg" version="1.1" xmlns="http://www.w3.org/2000/svg" xmlns:xlink="http://www.w3.org/1999/xlink" width="400" height="400" viewBox="0, 0, 400,400"><g id="svgg"><path id="path0" d="M165.400 72.000 C 165.264 72.220,164.634 72.400,164.000 72.400 C 163.366 72.400,162.736 72.580,162.600 72.800 C 162.451 73.041,162.988 73.200,163.953 73.200 C 164.833 73.200,165.664 73.020,165.800 72.800 C 165.952 72.554,169.271 72.400,174.424 72.400 C 179.741 72.400,182.800 72.546,182.800 72.800 C 182.800 73.020,183.160 73.200,183.600 73.200 C 184.040 73.200,184.400 73.020,184.400 72.800 C 184.400 72.580,184.040 72.400,183.600 72.400 C 183.160 72.400,182.800 72.220,182.800 72.000 C 182.800 71.746,179.675 71.600,174.224 71.600 C 168.937 71.600,165.552 71.753,165.400 72.000 M159.200 73.095 C 158.210 73.181,157.229 73.419,157.020 73.625 C 156.811 73.831,156.226 74.000,155.720 74.000 C 155.214 74.000,154.800 74.199,154.800 74.442 C 154.800 74.731,155.353 74.800,156.400 74.642 C 157.280 74.509,158.708 74.292,159.572 74.161 C 160.437 74.029,161.241 73.669,161.360 73.361 C 161.478 73.052,161.446 72.831,161.287 72.870 C 161.129 72.908,160.190 73.010,159.200 73.095 M186.000 73.600 C 186.000 73.820,186.540 74.000,187.200 74.000 C 187.860 74.000,188.400 74.180,188.400 74.400 C 188.400 74.620,188.951 74.800,189.624 74.800 C 190.337 74.800,190.744 74.633,190.600 74.400 C 190.464 74.180,189.924 74.000,189.400 74.000 C 188.876 74.000,188.336 73.820,188.200 73.600 C 188.064 73.380,187.513 73.200,186.976 73.200 C 186.439 73.200,186.000 73.380,186.000 73.600 M152.300 74.691 C 151.475 74.778,150.800 75.017,150.800 75.224 C 150.800 75.431,150.440 75.600,150.000 75.600 C 149.560 75.600,149.200 75.780,149.200 76.000 C 149.200 76.220,149.549 76.400,149.976 76.400 C 150.403 76.400,150.864 76.220,151.000 76.000 C 151.136 75.780,151.699 75.600,152.252 75.600 C 152.805 75.600,153.527 75.330,153.857 75.000 C 154.187 74.670,154.309 74.430,154.129 74.467 C 153.948 74.504,153.125 74.605,152.300 74.691 M191.200 75.200 C 191.200 75.420,191.455 75.600,191.767 75.600 C 192.078 75.600,192.414 75.825,192.512 76.100 C 192.610 76.375,192.827 76.474,192.993 76.319 C 193.341 75.995,192.268 74.800,191.629 74.800 C 191.393 74.800,191.200 74.980,191.200 75.200 M146.800 76.800 C 146.800 77.020,147.160 77.200,147.600 77.200 C 148.040 77.200,148.400 77.020,148.400 76.800 C 148.400 76.580,148.040 76.400,147.600 76.400 C 147.160 76.400,146.800 76.580,146.800 76.800 M194.000 76.800 C 194.000 77.020,194.345 77.200,194.767 77.200 C 195.188 77.200,195.614 77.425,195.712 77.700 C 195.810 77.975,196.037 78.063,196.216 77.896 C 196.579 77.556,195.279 76.433,194.500 76.413 C 194.225 76.406,194.000 76.580,194.000 76.800 M145.200 77.600 C 145.200 77.820,145.470 78.000,145.800 78.000 C 146.130 78.000,146.400 77.820,146.400 77.600 C 146.400 77.380,146.130 77.200,145.800 77.200 C 145.470 77.200,145.200 77.380,145.200 77.600 M142.800 78.400 C 142.800 78.620,143.160 78.800,143.600 78.800 C 144.040 78.800,144.400 78.620,144.400 78.400 C 144.400 78.180,144.040 78.000,143.600 78.000 C 143.160 78.000,142.800 78.180,142.800 78.400 M197.000 78.400 C 196.864 78.620,196.945 78.800,197.180 78.800 C 197.415 78.800,198.172 79.340,198.863 80.000 C 199.554 80.660,200.317 81.211,200.559 81.224 C 200.802 81.238,201.630 82.037,202.400 83.000 C 203.814 84.769,204.400 85.167,204.400 84.357 C 204.400 83.814,199.961 79.600,199.389 79.600 C 199.162 79.600,198.717 79.240,198.400 78.800 C 197.760 77.912,197.370 77.801,197.000 78.400 M141.200 79.200 C 141.200 79.420,140.795 79.606,140.300 79.613 C 139.414 79.625,138.000 80.444,138.000 80.944 C 138.000 81.085,138.270 81.200,138.600 81.200 C 138.930 81.200,139.200 81.020,139.200 80.800 C 139.200 80.580,139.650 80.400,140.200 80.400 C 140.750 80.400,141.200 80.220,141.200 80.000 C 141.200 79.780,141.470 79.600,141.800 79.600 C 142.130 79.600,142.400 79.420,142.400 79.200 C 142.400 78.980,142.130 78.800,141.800 78.800 C 141.470 78.800,141.200 78.980,141.200 79.200 M135.700 81.744 C 135.205 81.989,134.800 82.327,134.800 82.495 C 134.800 82.663,134.451 82.800,134.024 82.800 C 133.597 82.800,133.136 82.980,133.000 83.200 C 132.864 83.420,132.430 83.600,132.036 83.600 C 131.641 83.600,130.754 84.140,130.063 84.800 C 129.372 85.460,128.613 86.000,128.375 86.000 C 127.922 86.000,126.800 86.977,126.800 87.371 C 126.800 87.497,127.070 87.600,127.400 87.600 C 127.730 87.600,128.000 87.420,128.000 87.200 C 128.000 86.980,128.238 86.800,128.529 86.800 C 128.820 86.800,129.765 86.265,130.629 85.611 C 131.493 84.957,132.425 84.417,132.700 84.411 C 132.975 84.405,133.200 84.220,133.200 84.000 C 133.200 83.780,133.560 83.600,134.000 83.600 C 134.440 83.600,134.800 83.420,134.800 83.200 C 134.800 82.980,135.070 82.800,135.400 82.800 C 135.730 82.800,136.000 82.620,136.000 82.400 C 136.000 82.180,136.360 82.000,136.800 82.000 C 137.240 82.000,137.600 81.820,137.600 81.600 C 137.600 81.104,136.881 81.159,135.700 81.744 M204.400 85.392 C 204.400 85.497,205.119 86.532,205.998 87.692 C 206.877 88.851,207.597 90.025,207.598 90.300 C 207.599 90.575,207.780 90.800,208.000 90.800 C 208.220 90.800,208.400 91.250,208.400 91.800 C 208.400 92.350,208.580 92.800,208.800 92.800 C 209.020 92.800,209.200 92.350,209.200 91.800 C 209.200 91.250,209.020 90.800,208.800 90.800 C 208.580 90.800,208.400 90.440,208.400 90.000 C 208.400 89.560,208.220 89.200,208.000 89.200 C 207.780 89.200,207.600 88.906,207.600 88.547 C 207.600 88.188,207.273 87.603,206.872 87.247 C 206.472 86.891,206.028 86.285,205.885 85.900 C 205.660 85.294,204.400 84.863,204.400 85.392 M124.516 88.400 C 124.382 88.911,123.970 89.200,123.377 89.200 C 122.313 89.200,121.826 89.770,122.156 90.629 C 122.336 91.099,122.765 90.950,124.262 89.897 C 126.413 88.383,126.868 87.600,125.596 87.600 C 125.062 87.600,124.644 87.909,124.516 88.400 M119.738 91.417 C 119.608 91.757,119.590 92.123,119.699 92.232 C 119.976 92.509,122.000 91.545,122.000 91.136 C 122.000 90.532,119.981 90.784,119.738 91.417 M117.041 93.631 C 116.404 94.274,115.679 94.800,115.430 94.800 C 115.180 94.800,114.717 95.160,114.400 95.600 C 114.083 96.040,113.596 96.400,113.318 96.400 C 112.665 96.400,95.600 113.475,95.600 114.128 C 95.600 114.401,95.240 114.883,94.800 115.200 C 93.997 115.779,93.704 116.800,94.341 116.800 C 94.815 116.800,97.200 114.477,97.200 114.015 C 97.200 113.807,99.809 110.974,102.997 107.719 C 106.186 104.463,108.796 101.599,108.797 101.354 C 108.799 101.109,109.476 100.440,110.302 99.868 C 111.128 99.296,112.068 98.461,112.390 98.014 C 112.713 97.566,113.213 97.200,113.502 97.200 C 113.791 97.200,114.555 96.660,115.200 96.000 C 115.845 95.340,116.559 94.800,116.787 94.800 C 117.014 94.800,117.200 94.650,117.200 94.468 C 117.200 94.285,117.650 93.894,118.200 93.600 C 118.750 93.306,119.200 92.915,119.200 92.732 C 119.200 92.063,118.171 92.492,117.041 93.631 M209.200 94.000 C 209.200 94.440,209.380 94.800,209.600 94.800 C 209.820 94.800,210.000 94.440,210.000 94.000 C 210.000 93.560,209.820 93.200,209.600 93.200 C 209.380 93.200,209.200 93.560,209.200 94.000 M210.000 96.357 C 210.000 96.774,210.290 97.226,210.645 97.362 C 211.116 97.543,211.224 97.438,211.045 96.972 C 210.910 96.621,210.800 96.169,210.800 95.967 C 210.800 95.765,210.620 95.600,210.400 95.600 C 210.180 95.600,210.000 95.941,210.000 96.357 M210.800 99.133 C 210.800 99.757,210.923 100.389,211.073 100.539 C 211.588 101.054,211.447 112.858,210.918 113.554 C 210.630 113.933,210.522 114.737,210.658 115.500 C 210.805 116.325,210.727 116.800,210.445 116.800 C 210.200 116.800,210.000 117.147,210.000 117.571 C 210.000 117.996,209.730 118.613,209.400 118.943 C 209.070 119.273,208.800 119.815,208.800 120.148 C 208.800 120.481,208.620 120.864,208.400 121.000 C 208.180 121.136,208.000 121.672,208.000 122.191 C 208.000 122.748,207.344 123.817,206.400 124.800 C 205.520 125.716,204.800 126.638,204.800 126.850 C 204.800 127.061,203.963 128.129,202.939 129.223 C 201.916 130.317,201.172 131.305,201.285 131.418 C 201.531 131.665,207.600 125.603,207.600 125.110 C 207.600 124.921,207.960 124.380,208.400 123.908 C 208.840 123.436,209.200 122.734,209.200 122.348 C 209.200 121.963,209.380 121.536,209.600 121.400 C 209.820 121.264,210.000 120.803,210.000 120.376 C 210.000 119.949,210.180 119.600,210.400 119.600 C 210.620 119.600,210.800 119.251,210.800 118.824 C 210.800 118.397,210.980 117.936,211.200 117.800 C 211.420 117.664,211.600 116.944,211.600 116.200 C 211.600 115.456,211.780 114.736,212.000 114.600 C 212.243 114.450,212.400 111.537,212.400 107.200 C 212.400 102.863,212.243 99.950,212.000 99.800 C 211.780 99.664,211.600 99.203,211.600 98.776 C 211.600 98.349,211.420 98.000,211.200 98.000 C 210.980 98.000,210.800 98.510,210.800 99.133 M225.492 109.442 C 225.331 109.602,225.211 110.198,225.225 110.767 L 225.251 111.800 225.637 110.834 C 226.053 109.794,225.967 108.967,225.492 109.442 M92.500 118.210 C 92.005 118.739,91.600 119.382,91.600 119.639 C 91.600 119.896,91.284 120.397,90.897 120.753 C 90.511 121.109,89.940 121.895,89.630 122.500 C 89.319 123.105,88.915 123.600,88.732 123.600 C 88.550 123.600,88.400 123.825,88.400 124.100 C 88.399 124.375,87.938 125.136,87.375 125.790 C 86.813 126.445,86.057 127.615,85.697 128.390 C 85.336 129.166,84.901 129.898,84.730 130.018 C 84.257 130.348,80.400 138.051,80.400 138.664 C 80.400 139.602,81.444 139.241,82.032 138.100 C 82.344 137.495,82.689 136.910,82.799 136.800 C 83.277 136.324,84.000 134.761,84.000 134.205 C 84.000 133.872,84.180 133.600,84.400 133.600 C 84.620 133.600,84.800 133.240,84.800 132.800 C 84.800 132.360,84.980 132.000,85.200 132.000 C 85.420 132.000,85.600 131.640,85.600 131.200 C 85.600 130.760,85.780 130.400,86.000 130.400 C 86.220 130.400,86.400 130.164,86.400 129.875 C 86.400 129.587,86.760 128.964,87.200 128.492 C 87.640 128.020,88.000 127.444,88.000 127.213 C 88.000 126.982,88.540 126.228,89.200 125.537 C 89.860 124.846,90.400 124.038,90.400 123.741 C 90.400 123.443,90.560 123.200,90.756 123.200 C 90.952 123.200,91.512 122.348,92.002 121.307 C 92.491 120.266,93.231 119.120,93.646 118.760 C 94.061 118.401,94.400 117.902,94.400 117.653 C 94.400 116.909,93.461 117.184,92.500 118.210 M92.000 122.576 C 92.000 123.467,92.626 123.644,92.692 122.772 C 92.724 122.348,92.581 122.000,92.375 122.000 C 92.169 122.000,92.000 122.259,92.000 122.576 M89.062 127.931 C 88.185 128.900,88.223 129.600,89.153 129.600 C 89.804 129.600,90.374 128.636,90.395 127.500 C 90.404 126.966,89.741 127.181,89.062 127.931 M198.151 133.100 C 197.282 133.925,196.083 134.821,195.486 135.091 C 194.889 135.362,194.400 135.767,194.400 135.991 C 194.400 136.726,195.961 136.420,196.400 135.600 C 196.635 135.160,197.092 134.800,197.414 134.800 C 197.736 134.800,198.000 134.620,198.000 134.400 C 198.000 134.180,198.295 134.000,198.656 134.000 C 199.368 134.000,200.367 132.904,200.387 132.100 C 200.409 131.260,199.802 131.532,198.151 133.100 M90.561 136.463 C 90.446 136.648,90.014 136.800,89.600 136.800 C 89.186 136.800,88.736 136.980,88.600 137.200 C 88.441 137.457,89.872 137.600,92.606 137.600 C 96.441 137.600,96.845 137.531,96.723 136.900 C 96.576 136.143,91.003 135.748,90.561 136.463 M192.500 137.070 C 192.005 137.415,191.600 137.946,191.600 138.249 C 191.600 139.030,191.897 138.939,193.018 137.818 C 194.515 136.321,194.209 135.878,192.500 137.070 M81.483 140.303 C 81.319 141.362,81.302 141.369,81.010 140.500 C 80.508 139.009,78.844 139.930,78.813 141.717 C 78.806 142.111,78.440 142.820,78.000 143.292 C 77.045 144.318,76.911 146.400,77.800 146.400 C 78.130 146.400,78.400 146.583,78.400 146.808 C 78.400 147.043,77.977 147.109,77.400 146.964 C 76.570 146.756,76.400 146.857,76.400 147.557 C 76.400 148.020,76.220 148.400,76.000 148.400 C 75.780 148.400,75.600 148.845,75.600 149.388 C 75.600 149.931,75.240 151.017,74.800 151.800 C 74.360 152.583,74.000 153.748,74.000 154.389 C 74.000 155.029,73.820 155.664,73.600 155.800 C 73.380 155.936,73.200 156.667,73.200 157.424 C 73.200 158.181,73.020 158.800,72.800 158.800 C 72.580 158.800,72.400 159.509,72.400 160.376 C 72.400 161.243,72.220 162.064,72.000 162.200 C 71.780 162.336,71.600 163.146,71.600 164.000 C 71.600 164.854,71.420 165.664,71.200 165.800 C 70.980 165.936,70.800 166.926,70.800 168.000 C 70.800 169.074,70.620 170.064,70.400 170.200 C 70.180 170.336,70.000 171.427,70.000 172.624 C 70.000 173.821,69.820 174.800,69.600 174.800 C 69.363 174.800,69.200 176.259,69.200 178.376 C 69.200 180.343,69.020 182.064,68.800 182.200 C 68.551 182.354,68.400 186.196,68.400 192.400 C 68.400 198.604,68.551 202.446,68.800 202.600 C 69.020 202.736,69.200 204.266,69.200 206.000 C 69.200 207.734,69.380 209.264,69.600 209.400 C 69.820 209.536,70.000 210.627,70.000 211.824 C 70.000 213.021,70.180 214.000,70.400 214.000 C 70.620 214.000,70.800 214.709,70.800 215.576 C 70.800 216.443,70.980 217.264,71.200 217.400 C 71.420 217.536,71.600 218.526,71.600 219.600 C 71.600 220.674,71.780 221.664,72.000 221.800 C 72.220 221.936,72.400 222.476,72.400 223.000 C 72.400 223.524,72.580 224.064,72.800 224.200 C 73.020 224.336,73.200 225.031,73.200 225.744 C 73.200 226.457,73.369 227.211,73.575 227.420 C 73.782 227.629,74.015 228.288,74.094 228.885 C 74.172 229.482,74.363 230.097,74.518 230.252 C 74.673 230.407,74.800 230.956,74.800 231.472 C 74.800 231.988,74.980 232.768,75.200 233.205 C 75.420 233.642,75.780 234.358,76.000 234.795 C 76.220 235.232,76.400 235.952,76.400 236.395 C 76.400 236.838,76.580 237.200,76.800 237.200 C 77.020 237.200,77.200 237.549,77.200 237.976 C 77.200 238.403,77.361 238.853,77.559 238.974 C 77.756 239.096,78.300 239.930,78.767 240.827 C 79.235 241.724,79.430 242.342,79.201 242.200 C 78.971 242.059,79.231 242.743,79.776 243.720 C 80.322 244.698,80.641 245.626,80.484 245.782 C 80.328 245.939,80.470 246.007,80.800 245.933 C 81.203 245.844,81.385 246.092,81.353 246.691 C 81.327 247.181,81.462 247.485,81.653 247.367 C 81.844 247.249,82.000 247.613,82.000 248.176 C 82.000 248.810,82.224 249.200,82.587 249.200 C 82.926 249.200,83.084 249.437,82.960 249.760 C 82.842 250.067,82.966 250.455,83.235 250.621 C 83.568 250.827,83.621 250.757,83.400 250.400 C 83.196 250.070,83.233 249.973,83.501 250.139 C 83.734 250.283,83.828 250.772,83.709 251.225 C 83.564 251.781,83.772 252.245,84.347 252.648 C 84.816 252.976,85.200 253.576,85.200 253.980 C 85.200 254.384,85.481 254.822,85.825 254.954 C 86.169 255.086,86.346 255.364,86.218 255.571 C 86.090 255.779,86.448 256.411,87.014 256.978 C 87.583 257.547,87.916 258.212,87.760 258.465 C 87.585 258.748,87.653 258.814,87.938 258.638 C 88.212 258.469,88.400 258.607,88.400 258.976 C 88.400 259.319,88.580 259.600,88.800 259.600 C 89.020 259.600,89.200 259.920,89.200 260.312 C 89.200 260.703,89.560 261.283,90.000 261.600 C 90.440 261.917,90.800 262.457,90.800 262.800 C 90.800 263.143,91.160 263.683,91.600 264.000 C 92.040 264.317,92.400 264.796,92.400 265.065 C 92.400 265.333,92.608 265.681,92.862 265.838 C 93.167 266.027,93.214 265.946,93.000 265.600 C 92.790 265.261,92.833 265.173,93.121 265.351 C 93.365 265.502,93.464 265.890,93.340 266.213 C 93.216 266.536,93.269 266.804,93.457 266.809 C 93.646 266.814,94.250 267.189,94.800 267.644 C 95.350 268.098,95.575 268.353,95.300 268.211 C 95.025 268.069,94.806 268.098,94.813 268.276 C 94.834 268.825,95.763 269.836,96.500 270.112 C 96.885 270.257,97.200 270.651,97.200 270.987 C 97.200 271.324,97.380 271.600,97.600 271.600 C 97.820 271.600,98.000 271.832,98.000 272.115 C 98.000 272.714,101.992 276.760,102.016 276.185 C 102.025 275.973,102.301 276.295,102.629 276.900 C 102.957 277.505,103.403 278.000,103.619 278.000 C 104.103 278.000,107.241 281.113,107.827 282.173 C 108.061 282.599,108.601 283.139,109.026 283.373 C 109.452 283.608,110.268 284.266,110.841 284.835 C 111.413 285.404,112.178 285.983,112.541 286.122 C 112.903 286.261,113.200 286.607,113.200 286.891 C 113.200 287.175,113.579 287.644,114.042 287.933 C 114.739 288.369,114.836 288.368,114.606 287.930 C 114.454 287.638,115.051 288.165,115.933 289.100 C 116.816 290.035,117.782 290.800,118.081 290.800 C 118.379 290.800,118.883 291.160,119.200 291.600 C 119.517 292.040,120.052 292.400,120.390 292.400 C 120.727 292.400,121.512 292.940,122.135 293.600 C 122.758 294.260,123.483 294.800,123.746 294.800 C 124.008 294.800,124.483 295.160,124.800 295.600 C 125.117 296.040,125.697 296.400,126.088 296.400 C 126.480 296.400,126.800 296.580,126.800 296.800 C 126.800 297.020,127.120 297.200,127.512 297.200 C 127.903 297.200,128.483 297.560,128.800 298.000 C 129.117 298.440,129.697 298.800,130.088 298.800 C 130.480 298.800,130.800 298.980,130.800 299.200 C 130.800 299.420,131.160 299.600,131.600 299.600 C 132.040 299.600,132.400 299.780,132.400 300.000 C 132.400 300.220,132.646 300.400,132.946 300.400 C 133.246 300.400,133.964 300.771,134.540 301.224 C 135.117 301.678,135.938 302.075,136.366 302.107 C 136.794 302.140,137.056 302.309,136.949 302.483 C 136.841 302.657,137.033 302.800,137.376 302.800 C 137.719 302.800,138.000 302.980,138.000 303.200 C 138.000 303.420,138.360 303.600,138.800 303.600 C 139.240 303.600,139.600 303.780,139.600 304.000 C 139.600 304.220,139.960 304.400,140.400 304.400 C 140.840 304.400,141.200 304.580,141.200 304.800 C 141.200 305.020,141.465 305.200,141.788 305.200 C 142.111 305.200,143.017 305.560,143.800 306.000 C 144.583 306.440,145.579 306.800,146.012 306.800 C 146.445 306.800,146.800 306.980,146.800 307.200 C 146.800 307.420,147.160 307.600,147.600 307.600 C 148.040 307.600,148.400 307.780,148.400 308.000 C 148.400 308.220,148.814 308.400,149.320 308.400 C 149.826 308.400,150.482 308.625,150.779 308.900 C 151.216 309.306,151.258 309.288,151.000 308.800 C 150.742 308.312,150.784 308.294,151.221 308.700 C 151.518 308.975,152.084 309.200,152.480 309.200 C 152.876 309.200,153.200 309.380,153.200 309.600 C 153.200 309.820,153.562 310.000,154.005 310.000 C 154.448 310.000,155.123 310.167,155.505 310.371 C 156.425 310.862,157.616 311.285,158.600 311.472 C 159.040 311.555,159.460 311.798,159.533 312.012 C 159.607 312.225,160.192 312.400,160.833 312.400 C 161.475 312.400,162.000 312.580,162.000 312.800 C 162.000 313.020,162.540 313.200,163.200 313.200 C 163.860 313.200,164.400 313.380,164.400 313.600 C 164.400 313.820,164.749 314.000,165.176 314.000 C 165.603 314.000,166.064 314.180,166.200 314.400 C 166.336 314.620,166.966 314.800,167.600 314.800 C 168.234 314.800,168.864 314.980,169.000 315.200 C 169.136 315.420,170.677 315.600,172.424 315.600 C 174.275 315.600,175.600 315.433,175.600 315.200 C 175.600 314.980,176.032 314.800,176.560 314.800 C 178.844 314.800,180.400 312.284,180.400 308.593 C 180.400 306.764,180.265 305.207,180.100 305.133 C 179.724 304.966,178.425 302.836,178.129 301.900 C 178.007 301.515,177.748 301.200,177.553 301.200 C 177.359 301.200,177.200 300.761,177.200 300.224 C 177.200 299.687,177.020 299.136,176.800 299.000 C 176.580 298.864,176.400 298.403,176.400 297.976 C 176.400 297.549,176.220 297.200,176.000 297.200 C 175.780 297.200,175.600 296.581,175.600 295.824 C 175.600 295.067,175.420 294.336,175.200 294.200 C 174.980 294.064,174.800 293.243,174.800 292.376 C 174.800 291.509,174.620 290.800,174.400 290.800 C 174.180 290.800,174.000 289.821,174.000 288.624 C 174.000 287.427,173.820 286.336,173.600 286.200 C 173.357 286.050,173.200 283.070,173.200 278.600 C 173.200 274.130,173.357 271.150,173.600 271.000 C 173.820 270.864,174.000 269.694,174.000 268.400 C 174.000 267.106,174.180 265.936,174.400 265.800 C 174.620 265.664,174.800 264.854,174.800 264.000 C 174.800 263.146,174.980 262.336,175.200 262.200 C 175.420 262.064,175.600 261.423,175.600 260.776 C 175.600 260.129,175.780 259.600,176.000 259.600 C 176.220 259.600,176.400 259.240,176.400 258.800 C 176.400 258.360,176.580 258.000,176.800 258.000 C 177.020 258.000,177.200 257.640,177.200 257.200 C 177.200 256.760,177.335 256.399,177.500 256.397 C 177.837 256.393,178.800 254.475,178.800 253.809 C 178.800 253.571,179.160 253.117,179.600 252.800 C 180.040 252.483,180.400 251.986,180.400 251.695 C 180.400 251.404,180.760 250.780,181.200 250.308 C 181.640 249.836,182.000 249.213,182.000 248.925 C 182.000 248.636,182.180 248.400,182.400 248.400 C 182.620 248.400,182.800 248.080,182.800 247.688 C 182.800 247.297,183.160 246.717,183.600 246.400 C 184.208 245.962,184.400 245.365,184.400 243.912 C 184.400 242.267,184.288 242.000,183.600 242.000 C 183.160 242.000,182.800 241.820,182.800 241.600 C 182.800 241.380,182.476 241.200,182.080 241.200 C 181.684 241.200,181.118 240.975,180.821 240.700 C 180.484 240.387,180.379 240.373,180.542 240.663 C 180.738 241.013,180.558 241.013,179.804 240.663 C 179.255 240.408,178.805 240.065,178.803 239.900 C 178.801 239.735,178.480 239.600,178.088 239.600 C 177.697 239.600,177.117 239.240,176.800 238.800 C 176.483 238.360,175.918 238.000,175.545 238.000 C 175.172 238.000,174.807 237.865,174.733 237.700 C 174.566 237.324,172.436 236.025,171.500 235.729 C 171.115 235.607,170.800 235.348,170.800 235.153 C 170.800 234.959,170.440 234.800,170.000 234.800 C 169.560 234.800,169.200 234.620,169.200 234.400 C 169.200 234.180,168.906 234.000,168.547 234.000 C 168.188 234.000,167.603 233.684,167.247 233.297 C 166.891 232.911,166.105 232.340,165.500 232.030 C 164.895 231.719,164.400 231.315,164.400 231.132 C 164.400 230.950,164.130 230.800,163.800 230.800 C 163.471 230.800,162.459 230.080,161.552 229.200 C 160.645 228.320,159.738 227.600,159.535 227.600 C 159.093 227.600,149.200 217.747,149.199 217.306 C 149.199 217.138,148.659 216.370,148.000 215.600 C 147.341 214.830,146.801 213.975,146.801 213.700 C 146.800 213.425,146.620 213.200,146.400 213.200 C 146.180 213.200,146.000 212.840,146.000 212.400 C 146.000 211.960,145.864 211.600,145.698 211.600 C 145.531 211.600,145.160 211.015,144.871 210.300 C 144.583 209.585,144.179 208.687,143.974 208.305 C 143.465 207.360,143.488 196.116,144.000 195.800 C 144.220 195.664,144.400 194.674,144.400 193.600 C 144.400 192.526,144.580 191.536,144.800 191.400 C 145.020 191.264,145.200 190.274,145.200 189.200 C 145.200 188.126,145.380 187.136,145.600 187.000 C 146.265 186.589,146.092 184.000,145.400 184.000 C 145.070 184.000,144.800 183.730,144.800 183.400 C 144.800 182.721,145.426 182.595,145.800 183.200 C 146.218 183.876,146.800 183.644,146.800 182.800 C 146.800 182.360,146.980 182.000,147.200 182.000 C 147.420 182.000,147.600 181.728,147.600 181.395 C 147.600 181.062,147.780 180.432,148.000 179.995 C 148.220 179.558,148.580 178.842,148.800 178.405 C 149.388 177.237,149.290 176.361,148.500 175.723 C 147.855 175.203,147.871 175.178,148.701 175.407 C 149.764 175.699,150.993 174.680,150.651 173.790 C 150.356 173.020,149.600 173.028,149.600 173.800 C 149.600 174.130,149.420 174.400,149.200 174.400 C 148.636 174.400,148.723 173.930,149.459 173.000 C 149.897 172.446,150.149 172.354,150.279 172.700 C 150.596 173.544,151.436 173.257,152.032 172.100 C 152.344 171.495,152.698 170.910,152.819 170.800 C 152.940 170.690,153.475 169.970,154.008 169.200 C 154.541 168.430,155.398 167.350,155.911 166.800 C 156.425 166.250,157.144 165.305,157.509 164.700 C 157.874 164.095,158.314 163.600,158.486 163.600 C 158.659 163.600,158.800 163.351,158.800 163.046 C 158.800 162.741,159.256 162.193,159.813 161.828 C 160.370 161.463,160.716 160.988,160.583 160.773 C 160.450 160.557,160.572 160.430,160.856 160.490 C 161.139 160.551,161.555 160.195,161.780 159.700 C 162.005 159.205,162.417 158.800,162.694 158.800 C 162.972 158.800,163.941 158.080,164.848 157.200 C 166.681 155.421,166.053 154.934,164.073 156.600 C 163.419 157.150,162.756 157.600,162.599 157.600 C 162.442 157.600,161.418 158.500,160.324 159.600 C 158.383 161.551,157.600 162.011,157.600 161.200 C 157.600 160.980,157.780 160.800,158.000 160.800 C 158.220 160.800,158.400 160.561,158.400 160.270 C 158.400 159.978,158.850 159.317,159.400 158.800 C 160.983 157.313,160.336 156.410,158.729 157.864 C 157.605 158.881,157.402 158.201,158.350 156.594 C 159.767 154.194,159.558 151.006,157.929 150.163 C 156.759 149.558,156.620 149.557,156.185 150.153 C 155.561 151.007,150.400 151.104,150.400 150.262 C 150.400 149.507,149.086 148.402,148.169 148.387 C 147.746 148.380,147.051 148.110,146.624 147.787 C 146.042 147.348,144.656 147.200,141.111 147.200 C 136.968 147.200,136.342 147.112,136.110 146.500 C 135.634 145.243,134.936 144.850,132.953 144.724 C 131.264 144.617,131.015 144.492,131.109 143.800 C 131.213 143.035,131.023 143.005,126.755 143.126 C 123.964 143.205,122.132 143.092,121.866 142.826 C 121.071 142.031,118.518 142.306,118.281 143.211 C 118.079 143.985,117.807 144.017,112.335 143.911 L 106.600 143.800 106.229 142.300 L 105.859 140.800 103.092 140.800 C 100.680 140.800,100.299 140.699,100.120 140.016 C 99.848 138.976,89.089 138.814,87.964 139.833 C 87.342 140.395,86.000 140.243,86.000 139.610 C 86.000 138.572,81.647 139.239,81.483 140.303 M186.897 141.196 C 186.427 141.633,185.796 141.897,185.495 141.781 C 185.194 141.666,184.503 141.983,183.959 142.486 C 183.415 142.989,182.482 143.621,181.885 143.891 C 181.288 144.162,180.800 144.552,180.800 144.760 C 180.800 144.967,180.260 145.255,179.600 145.400 C 178.940 145.545,178.400 145.919,178.400 146.232 C 178.400 146.544,178.042 146.800,177.603 146.800 C 177.165 146.800,176.582 147.160,176.307 147.600 C 176.032 148.040,175.605 148.400,175.358 148.400 C 174.762 148.400,172.800 149.957,172.800 150.429 C 172.800 150.633,173.070 150.800,173.400 150.800 C 173.730 150.800,174.000 150.620,174.000 150.400 C 174.000 150.180,174.236 150.000,174.525 150.000 C 174.813 150.000,175.436 149.640,175.908 149.200 C 176.380 148.760,176.909 148.399,177.083 148.398 C 177.257 148.397,177.975 147.857,178.678 147.198 C 179.381 146.539,180.170 146.000,180.431 146.000 C 180.693 146.000,181.197 145.681,181.553 145.291 C 181.909 144.901,183.408 143.977,184.886 143.238 C 187.706 141.828,189.442 140.400,188.337 140.400 C 188.015 140.400,187.367 140.758,186.897 141.196 M77.600 149.400 C 77.600 149.730,77.420 150.000,77.200 150.000 C 76.980 150.000,76.800 149.730,76.800 149.400 C 76.800 149.070,76.980 148.800,77.200 148.800 C 77.420 148.800,77.600 149.070,77.600 149.400 M170.621 151.746 C 169.453 152.828,169.345 153.200,170.200 153.200 C 170.530 153.200,170.800 153.041,170.800 152.847 C 170.800 152.652,171.160 152.399,171.600 152.284 C 172.040 152.169,172.400 151.788,172.400 151.437 C 172.400 150.542,171.810 150.644,170.621 151.746 M164.184 153.227 C 164.039 153.461,164.016 153.749,164.133 153.867 C 164.420 154.153,165.200 153.648,165.200 153.176 C 165.200 152.665,164.509 152.699,164.184 153.227 M167.401 154.164 C 166.779 154.741,166.528 155.232,166.777 155.386 C 167.151 155.617,169.200 153.953,169.200 153.418 C 169.200 152.920,168.375 153.262,167.401 154.164 M240.422 160.700 C 240.434 160.865,241.019 161.450,241.722 162.000 L 243.000 163.000 242.000 161.722 C 241.041 160.496,240.375 160.065,240.422 160.700 M157.600 162.504 C 157.600 163.074,156.039 164.172,155.704 163.837 C 155.584 163.717,155.781 163.505,156.143 163.367 C 156.504 163.228,156.800 162.864,156.800 162.557 C 156.800 162.251,156.980 162.000,157.200 162.000 C 157.420 162.000,157.600 162.227,157.600 162.504 M155.306 165.239 C 155.096 166.041,153.414 168.000,152.934 168.000 C 152.808 168.000,153.186 167.369,153.775 166.598 C 154.363 165.826,154.734 165.016,154.599 164.798 C 154.463 164.579,154.617 164.400,154.939 164.400 C 155.337 164.400,155.455 164.669,155.306 165.239 M153.000 169.200 C 153.136 169.420,152.982 169.600,152.657 169.600 C 152.332 169.600,151.986 169.825,151.888 170.100 C 151.790 170.375,151.569 170.469,151.398 170.310 C 151.064 169.999,151.880 168.800,152.425 168.800 C 152.605 168.800,152.864 168.980,153.000 169.200 M252.400 173.367 C 252.400 173.788,253.605 174.928,253.821 174.712 C 253.922 174.611,253.644 174.202,253.202 173.802 C 252.761 173.403,252.400 173.207,252.400 173.367 M326.352 176.087 C 326.537 177.198,326.593 177.255,326.719 176.454 C 326.801 175.933,326.703 175.343,326.501 175.141 C 326.279 174.919,326.221 175.293,326.352 176.087 M255.693 179.200 C 255.693 179.970,255.775 180.285,255.876 179.900 C 255.976 179.515,255.976 178.885,255.876 178.500 C 255.775 178.115,255.693 178.430,255.693 179.200 M146.400 181.000 C 146.400 181.330,146.220 181.600,146.000 181.600 C 145.780 181.600,145.600 181.330,145.600 181.000 C 145.600 180.670,145.780 180.400,146.000 180.400 C 146.220 180.400,146.400 180.670,146.400 181.000 M327.180 182.910 C 327.375 184.558,327.383 184.567,327.519 183.249 C 327.596 182.506,327.506 181.746,327.320 181.560 C 327.133 181.373,327.071 181.981,327.180 182.910 M255.067 185.067 C 254.920 185.213,254.811 185.708,254.825 186.167 C 254.849 186.933,254.882 186.923,255.234 186.042 C 255.626 185.063,255.544 184.589,255.067 185.067 M144.800 186.080 C 144.800 186.726,144.682 186.842,144.355 186.515 C 144.110 186.270,144.031 185.874,144.178 185.635 C 144.592 184.965,144.800 185.114,144.800 186.080 M143.160 194.500 C 143.123 195.715,143.101 195.735,142.823 194.800 C 142.660 194.250,142.598 193.665,142.687 193.500 C 143.022 192.873,143.199 193.246,143.160 194.500 M327.152 198.313 C 327.021 199.107,327.079 199.481,327.301 199.259 C 327.503 199.057,327.601 198.467,327.519 197.946 C 327.393 197.145,327.337 197.202,327.152 198.313 M224.060 234.642 C 223.331 235.466,223.800 235.857,224.581 235.076 C 224.921 234.736,225.200 234.354,225.200 234.229 C 225.200 233.809,224.606 234.024,224.060 234.642 M198.235 252.603 C 197.595 253.153,197.158 253.691,197.265 253.798 C 197.371 253.904,197.974 253.454,198.604 252.796 C 199.999 251.339,199.816 251.243,198.235 252.603 M283.287 286.009 C 282.819 286.759,282.841 286.781,283.591 286.313 C 284.036 286.035,284.400 285.671,284.400 285.504 C 284.400 284.926,283.791 285.203,283.287 286.009 " stroke="none" fill="#fb7e5e" fill-rule="evenodd"></path><path id="path1" d="M165.800 72.800 C 165.664 73.020,164.573 73.200,163.376 73.200 C 162.179 73.200,161.200 73.361,161.200 73.558 C 161.200 73.921,159.512 74.257,155.700 74.655 C 154.545 74.775,153.600 75.037,153.600 75.237 C 153.600 75.437,153.071 75.600,152.424 75.600 C 151.777 75.600,151.136 75.780,151.000 76.000 C 150.864 76.220,150.223 76.400,149.576 76.400 C 148.929 76.400,148.400 76.580,148.400 76.800 C 148.400 77.020,147.950 77.200,147.400 77.200 C 146.850 77.200,146.400 77.380,146.400 77.600 C 146.400 77.820,145.950 78.000,145.400 78.000 C 144.850 78.000,144.400 78.180,144.400 78.400 C 144.400 78.620,143.950 78.800,143.400 78.800 C 142.850 78.800,142.400 78.980,142.400 79.200 C 142.400 79.420,142.130 79.600,141.800 79.600 C 141.470 79.600,141.200 79.780,141.200 80.000 C 141.200 80.220,140.750 80.400,140.200 80.400 C 139.650 80.400,139.200 80.580,139.200 80.800 C 139.200 81.020,138.840 81.200,138.400 81.200 C 137.960 81.200,137.600 81.380,137.600 81.600 C 137.600 81.820,137.240 82.000,136.800 82.000 C 136.360 82.000,136.000 82.180,136.000 82.400 C 136.000 82.620,135.730 82.800,135.400 82.800 C 135.070 82.800,134.800 82.980,134.800 83.200 C 134.800 83.420,134.440 83.600,134.000 83.600 C 133.560 83.600,133.200 83.780,133.200 84.000 C 133.200 84.220,132.975 84.405,132.700 84.411 C 132.425 84.417,131.493 84.957,130.629 85.611 C 129.765 86.265,128.820 86.800,128.529 86.800 C 128.238 86.800,128.000 86.980,128.000 87.200 C 128.000 87.420,127.659 87.600,127.243 87.600 C 126.826 87.600,126.385 87.862,126.262 88.183 C 126.018 88.819,122.785 91.025,122.300 90.886 C 122.135 90.839,122.000 90.958,122.000 91.151 C 122.000 91.345,121.415 91.745,120.700 92.041 C 119.475 92.549,118.605 93.141,117.384 94.300 C 117.094 94.575,116.748 94.800,116.615 94.800 C 116.482 94.800,115.845 95.340,115.200 96.000 C 114.555 96.660,113.817 97.200,113.560 97.200 C 113.304 97.200,112.762 97.583,112.356 98.050 C 111.296 99.273,109.133 100.806,108.778 100.586 C 108.611 100.483,108.553 100.714,108.648 101.099 C 108.768 101.584,107.032 103.623,103.011 107.719 C 99.815 110.974,97.200 113.807,97.200 114.015 C 97.200 114.470,94.818 116.800,94.353 116.800 C 94.173 116.800,94.131 117.075,94.260 117.412 C 94.394 117.760,94.149 118.324,93.693 118.719 C 93.252 119.102,92.491 120.266,92.002 121.307 C 91.512 122.348,90.952 123.200,90.756 123.200 C 90.560 123.200,90.400 123.443,90.400 123.741 C 90.400 124.038,89.860 124.846,89.200 125.537 C 88.540 126.228,88.000 126.982,88.000 127.213 C 88.000 127.444,87.640 128.020,87.200 128.492 C 86.760 128.964,86.400 129.587,86.400 129.875 C 86.400 130.164,86.220 130.400,86.000 130.400 C 85.780 130.400,85.600 130.760,85.600 131.200 C 85.600 131.640,85.420 132.000,85.200 132.000 C 84.980 132.000,84.800 132.360,84.800 132.800 C 84.800 133.240,84.620 133.600,84.400 133.600 C 84.180 133.600,84.000 133.872,84.000 134.205 C 84.000 134.761,83.277 136.324,82.799 136.800 C 82.689 136.910,82.348 137.487,82.042 138.082 C 81.735 138.677,81.262 139.217,80.991 139.282 C 80.621 139.371,80.604 139.648,80.924 140.400 L 81.350 141.400 81.501 140.303 C 81.648 139.240,86.000 138.570,86.000 139.610 C 86.000 140.243,87.342 140.395,87.964 139.833 C 89.089 138.814,99.848 138.976,100.120 140.016 C 100.299 140.699,100.680 140.800,103.092 140.800 L 105.859 140.800 106.229 142.300 L 106.600 143.800 112.335 143.911 C 117.807 144.017,118.079 143.985,118.281 143.211 C 118.518 142.306,121.071 142.031,121.866 142.826 C 122.132 143.092,123.964 143.205,126.755 143.126 C 131.023 143.005,131.213 143.035,131.109 143.800 C 131.015 144.492,131.264 144.617,132.953 144.724 C 134.936 144.850,135.634 145.243,136.110 146.500 C 136.342 147.112,136.968 147.200,141.111 147.200 C 144.656 147.200,146.042 147.348,146.624 147.787 C 147.051 148.110,147.777 148.380,148.238 148.387 C 149.126 148.401,150.400 149.546,150.400 150.331 C 150.400 151.109,155.603 150.949,156.185 150.153 C 156.620 149.557,156.759 149.558,157.929 150.163 C 159.558 151.006,159.767 154.194,158.350 156.594 C 157.402 158.201,157.605 158.881,158.729 157.864 C 160.336 156.410,160.983 157.313,159.400 158.800 C 158.850 159.317,158.400 159.978,158.400 160.270 C 158.400 160.561,158.220 160.800,158.000 160.800 C 157.780 160.800,157.600 160.980,157.600 161.200 C 157.600 162.011,158.383 161.551,160.324 159.600 C 161.418 158.500,162.442 157.600,162.599 157.600 C 162.756 157.600,163.419 157.150,164.073 156.600 C 164.727 156.050,165.638 155.600,166.097 155.600 C 166.557 155.600,166.816 155.483,166.673 155.340 C 166.376 155.043,168.237 153.200,168.834 153.200 C 169.050 153.200,169.755 152.660,170.400 152.000 C 171.045 151.340,171.778 150.800,172.029 150.800 C 172.280 150.800,172.830 150.361,173.253 149.824 C 173.675 149.287,174.421 148.721,174.910 148.566 C 175.400 148.412,176.035 147.951,176.323 147.543 C 176.610 147.134,177.195 146.800,177.623 146.800 C 178.050 146.800,178.400 146.544,178.400 146.232 C 178.400 145.919,178.940 145.545,179.600 145.400 C 180.260 145.255,180.800 144.967,180.800 144.760 C 180.800 144.552,181.288 144.162,181.885 143.891 C 182.482 143.621,183.415 142.989,183.959 142.486 C 184.503 141.983,185.194 141.666,185.495 141.781 C 185.796 141.897,186.427 141.633,186.897 141.196 C 187.367 140.758,188.077 140.400,188.475 140.400 C 188.874 140.400,189.200 140.220,189.200 140.000 C 189.200 139.780,189.483 139.600,189.829 139.600 C 190.533 139.600,191.329 138.907,191.674 137.994 C 191.800 137.660,192.414 137.120,193.039 136.794 C 193.664 136.467,194.496 135.885,194.888 135.500 C 195.280 135.115,195.772 134.800,195.983 134.800 C 196.194 134.800,197.123 134.080,198.048 133.200 C 198.973 132.320,199.967 131.600,200.257 131.600 C 200.880 131.600,203.862 128.448,204.932 126.657 C 205.345 125.966,206.205 124.915,206.842 124.323 C 207.523 123.689,208.000 122.833,208.000 122.246 C 208.000 121.697,208.180 121.136,208.400 121.000 C 208.620 120.864,208.800 120.481,208.800 120.148 C 208.800 119.815,209.070 119.273,209.400 118.943 C 209.730 118.613,210.000 117.996,210.000 117.571 C 210.000 117.147,210.200 116.800,210.445 116.800 C 210.727 116.800,210.805 116.325,210.658 115.500 C 210.522 114.737,210.630 113.933,210.918 113.554 C 211.447 112.858,211.588 101.054,211.073 100.539 C 210.923 100.389,210.800 99.577,210.800 98.733 C 210.800 97.890,210.620 97.200,210.400 97.200 C 210.180 97.200,210.000 96.660,210.000 96.000 C 210.000 95.340,209.820 94.800,209.600 94.800 C 209.380 94.800,209.200 94.350,209.200 93.800 C 209.200 93.250,209.020 92.800,208.800 92.800 C 208.580 92.800,208.400 92.350,208.400 91.800 C 208.400 91.250,208.220 90.800,208.000 90.800 C 207.780 90.800,207.599 90.575,207.598 90.300 C 207.597 90.025,206.877 88.851,205.998 87.692 C 205.119 86.532,204.391 85.452,204.380 85.292 C 204.370 85.131,203.651 84.280,202.783 83.400 C 201.916 82.520,201.204 81.665,201.203 81.500 C 201.201 81.335,200.957 81.200,200.659 81.200 C 200.362 81.200,199.554 80.660,198.863 80.000 C 198.172 79.340,197.415 78.800,197.180 78.800 C 196.945 78.800,196.864 78.620,197.000 78.400 C 197.136 78.180,196.877 78.000,196.424 78.000 C 195.971 78.000,195.600 77.820,195.600 77.600 C 195.600 77.380,195.240 77.200,194.800 77.200 C 194.360 77.200,194.000 77.020,194.000 76.800 C 194.000 76.580,193.640 76.400,193.200 76.400 C 192.760 76.400,192.400 76.220,192.400 76.000 C 192.400 75.780,192.130 75.600,191.800 75.600 C 191.470 75.600,191.200 75.420,191.200 75.200 C 191.200 74.980,190.570 74.800,189.800 74.800 C 189.030 74.800,188.400 74.620,188.400 74.400 C 188.400 74.180,187.860 74.000,187.200 74.000 C 186.540 74.000,186.000 73.820,186.000 73.600 C 186.000 73.380,185.280 73.200,184.400 73.200 C 183.520 73.200,182.800 73.020,182.800 72.800 C 182.800 72.546,179.741 72.400,174.424 72.400 C 169.271 72.400,165.952 72.554,165.800 72.800 M92.692 122.772 C 92.660 123.197,92.491 123.456,92.317 123.349 C 91.873 123.075,91.920 122.000,92.375 122.000 C 92.581 122.000,92.724 122.348,92.692 122.772 M90.395 127.500 C 90.374 128.636,89.804 129.600,89.153 129.600 C 88.223 129.600,88.185 128.900,89.062 127.931 C 89.741 127.181,90.404 126.966,90.395 127.500 M96.723 136.900 C 96.845 137.531,96.441 137.600,92.606 137.600 C 89.872 137.600,88.441 137.457,88.600 137.200 C 88.736 136.980,89.186 136.800,89.600 136.800 C 90.014 136.800,90.446 136.648,90.561 136.463 C 91.003 135.748,96.576 136.143,96.723 136.900 M76.800 149.400 C 76.800 149.730,76.980 150.000,77.200 150.000 C 77.420 150.000,77.600 149.730,77.600 149.400 C 77.600 149.070,77.420 148.800,77.200 148.800 C 76.980 148.800,76.800 149.070,76.800 149.400 M165.200 153.176 C 165.200 153.648,164.420 154.153,164.133 153.867 C 163.847 153.580,164.352 152.800,164.824 152.800 C 165.031 152.800,165.200 152.969,165.200 153.176 M156.800 162.557 C 156.800 162.864,156.504 163.228,156.143 163.367 C 155.781 163.505,155.584 163.717,155.704 163.837 C 156.039 164.172,157.600 163.074,157.600 162.504 C 157.600 162.227,157.420 162.000,157.200 162.000 C 156.980 162.000,156.800 162.251,156.800 162.557 M154.599 164.798 C 154.734 165.016,154.363 165.826,153.775 166.598 C 152.542 168.214,152.723 168.441,154.125 167.039 C 155.321 165.843,155.766 164.400,154.939 164.400 C 154.617 164.400,154.463 164.579,154.599 164.798 M151.592 169.410 C 151.314 169.745,151.226 170.150,151.398 170.310 C 151.569 170.469,151.790 170.375,151.888 170.100 C 151.986 169.825,152.332 169.600,152.657 169.600 C 152.982 169.600,153.136 169.420,153.000 169.200 C 152.650 168.633,152.178 168.703,151.592 169.410 M149.296 173.195 C 148.695 174.157,148.676 174.400,149.200 174.400 C 149.420 174.400,149.600 174.111,149.600 173.757 C 149.600 173.360,149.822 173.199,150.180 173.337 C 150.567 173.485,150.685 173.367,150.537 172.980 C 150.234 172.191,149.885 172.251,149.296 173.195 M145.600 181.000 C 145.600 181.330,145.780 181.600,146.000 181.600 C 146.220 181.600,146.400 181.330,146.400 181.000 C 146.400 180.670,146.220 180.400,146.000 180.400 C 145.780 180.400,145.600 180.670,145.600 181.000 M144.800 183.367 C 144.800 183.715,145.085 184.000,145.433 184.000 C 146.140 184.000,146.017 183.139,145.275 182.892 C 145.014 182.805,144.800 183.018,144.800 183.367 M144.178 185.635 C 144.031 185.874,144.110 186.270,144.355 186.515 C 144.682 186.842,144.800 186.726,144.800 186.080 C 144.800 185.114,144.592 184.965,144.178 185.635 M142.687 193.500 C 142.598 193.665,142.660 194.250,142.823 194.800 C 143.101 195.735,143.123 195.715,143.160 194.500 C 143.199 193.246,143.022 192.873,142.687 193.500 " stroke="none" fill="#f9d282" fill-rule="evenodd"></path><path id="path2" d="M220.800 68.000 C 220.800 68.220,220.460 68.400,220.044 68.400 C 219.628 68.400,218.593 69.026,217.744 69.791 C 216.895 70.556,216.110 71.186,216.000 71.191 C 215.493 71.215,215.774 75.181,216.296 75.382 C 216.601 75.499,216.751 75.755,216.630 75.952 C 216.508 76.148,216.688 76.541,217.029 76.824 C 217.836 77.494,220.136 81.037,220.843 82.700 C 221.147 83.415,221.531 84.000,221.698 84.000 C 221.864 84.000,222.000 84.360,222.000 84.800 C 222.000 85.240,222.180 85.600,222.400 85.600 C 222.620 85.600,222.800 85.960,222.800 86.400 C 222.800 86.840,222.980 87.200,223.200 87.200 C 223.420 87.200,223.600 87.650,223.600 88.200 C 223.600 88.750,223.780 89.200,224.000 89.200 C 224.220 89.200,224.400 89.841,224.400 90.624 C 224.400 91.471,224.562 91.947,224.800 91.800 C 225.047 91.648,225.200 92.329,225.200 93.576 C 225.200 94.689,225.380 95.600,225.600 95.600 C 225.856 95.600,226.000 99.133,226.000 105.400 C 226.000 111.667,225.856 115.200,225.600 115.200 C 225.374 115.200,225.200 116.333,225.200 117.800 C 225.200 119.267,225.026 120.400,224.800 120.400 C 223.606 120.400,224.398 124.412,225.700 124.962 C 230.443 126.965,231.715 127.610,234.398 129.373 C 240.326 133.268,248.558 141.789,250.462 146.000 C 252.820 151.215,253.339 152.651,253.043 153.131 C 252.914 153.339,253.077 153.732,253.404 154.004 C 254.538 154.945,254.142 156.743,252.600 157.653 C 251.664 158.205,251.200 158.775,251.200 159.373 C 251.200 160.657,250.775 160.902,249.908 160.117 C 248.970 159.268,248.416 159.910,248.406 161.857 C 248.403 162.601,248.155 163.208,247.800 163.345 C 247.020 163.644,247.031 164.360,247.819 164.663 C 248.173 164.798,248.662 164.595,248.959 164.189 C 249.245 163.798,249.686 163.606,249.939 163.762 C 250.673 164.216,250.474 165.123,249.577 165.407 C 248.089 165.880,248.815 166.996,250.638 167.037 C 252.598 167.081,254.971 168.901,254.654 170.117 C 254.541 170.547,254.784 171.136,255.231 171.519 C 255.807 172.012,255.944 172.493,255.771 173.416 C 255.613 174.258,255.731 174.811,256.143 175.153 C 256.863 175.750,257.097 186.169,256.400 186.600 C 256.180 186.736,256.000 187.726,256.000 188.800 C 256.000 189.874,255.820 190.864,255.600 191.000 C 255.380 191.136,255.200 191.689,255.200 192.229 C 255.200 192.769,255.039 193.523,254.843 193.905 C 254.647 194.287,254.271 195.770,254.008 197.200 C 253.744 198.630,253.386 199.980,253.211 200.200 C 253.036 200.420,252.761 201.230,252.600 202.000 C 252.439 202.770,252.128 203.623,251.909 203.894 C 251.690 204.166,251.461 205.188,251.399 206.165 C 251.320 207.420,250.982 208.270,250.244 209.066 C 249.088 210.313,248.875 211.790,249.800 212.145 C 250.499 212.413,250.616 213.600,249.944 213.600 C 249.693 213.600,249.255 213.285,248.971 212.900 C 248.008 211.597,247.246 212.957,248.103 214.450 C 248.486 215.118,248.800 215.910,248.800 216.210 C 248.800 216.509,249.203 217.037,249.695 217.382 C 250.705 218.089,250.255 219.449,249.045 219.344 C 248.282 219.279,248.222 219.973,248.869 221.392 C 249.477 222.725,250.166 222.478,250.325 220.869 C 250.483 219.271,251.200 219.195,251.200 220.776 C 251.200 221.423,251.380 222.064,251.600 222.200 C 251.820 222.336,252.000 222.864,252.000 223.373 C 252.000 225.264,256.627 228.851,257.417 227.573 C 257.879 226.825,259.203 226.326,258.946 226.996 C 258.817 227.334,258.900 227.839,259.132 228.119 C 259.386 228.424,259.414 228.853,259.204 229.194 C 259.011 229.506,258.949 229.917,259.066 230.108 C 259.184 230.298,258.962 230.686,258.572 230.971 C 257.700 231.609,258.535 232.794,259.651 232.503 C 260.022 232.405,260.682 232.682,261.118 233.118 C 261.553 233.553,262.195 234.069,262.544 234.264 C 262.892 234.460,263.245 235.065,263.328 235.610 C 263.417 236.192,263.792 236.659,264.239 236.743 C 264.658 236.822,265.720 237.471,266.600 238.186 C 267.480 238.901,268.605 239.613,269.100 239.770 C 269.595 239.926,270.000 240.216,270.000 240.414 C 270.000 240.613,270.246 240.680,270.547 240.565 C 270.880 240.437,271.424 240.914,271.934 241.777 C 272.867 243.360,274.182 243.677,274.516 242.400 C 274.745 241.525,276.929 241.238,277.412 242.019 C 277.589 242.305,277.855 242.286,278.247 241.961 C 278.708 241.578,279.022 241.669,279.817 242.416 C 280.584 243.136,280.919 243.241,281.285 242.875 C 281.546 242.614,281.904 242.400,282.080 242.400 C 282.542 242.400,282.475 243.907,282.000 244.200 C 281.273 244.650,281.583 245.236,282.768 245.649 C 283.410 245.873,284.035 246.313,284.155 246.628 C 284.276 246.943,284.831 247.200,285.387 247.200 C 285.944 247.200,286.400 247.380,286.400 247.600 C 286.400 247.820,286.994 248.000,287.720 248.000 C 289.268 248.000,291.192 248.804,291.197 249.453 C 291.200 249.841,292.382 250.377,293.273 250.395 C 293.424 250.398,293.604 249.905,293.673 249.300 C 293.774 248.429,294.007 248.200,294.795 248.200 C 296.171 248.200,296.388 249.487,295.067 249.819 C 294.130 250.054,293.380 251.720,293.860 252.498 C 294.401 253.373,296.349 252.778,296.473 251.700 C 296.730 249.471,298.400 249.989,298.400 252.297 C 298.400 254.724,296.950 256.400,294.850 256.400 C 293.725 256.400,293.562 256.524,293.672 257.300 C 293.823 258.360,295.891 258.811,296.582 257.934 C 297.162 257.198,297.841 257.127,298.357 257.748 C 299.017 258.544,299.293 261.606,298.762 262.246 C 298.393 262.691,298.585 262.918,299.738 263.400 C 301.727 264.231,302.132 264.163,302.697 262.900 C 302.967 262.295,303.596 261.329,304.094 260.753 C 304.592 260.178,305.450 259.107,306.000 258.374 C 306.550 257.640,307.315 256.716,307.700 256.320 C 308.085 255.924,308.358 255.465,308.308 255.300 C 308.204 254.965,311.213 248.713,311.629 248.400 C 311.945 248.162,313.600 244.774,313.600 244.365 C 313.600 244.208,314.212 243.172,314.959 242.061 C 315.706 240.950,316.627 239.177,317.005 238.121 C 317.383 237.064,318.122 235.328,318.646 234.263 C 319.171 233.198,319.600 232.070,319.600 231.758 C 319.600 231.445,319.759 230.877,319.953 230.495 C 320.147 230.113,320.517 228.900,320.776 227.800 C 321.034 226.700,321.415 225.740,321.623 225.667 C 321.830 225.593,322.000 225.188,322.000 224.767 C 322.000 224.345,322.180 224.000,322.400 224.000 C 322.620 224.000,322.800 223.370,322.800 222.600 C 322.800 221.830,322.980 221.200,323.200 221.200 C 323.420 221.200,323.600 220.401,323.600 219.424 C 323.600 218.447,323.780 217.536,324.000 217.400 C 324.220 217.264,324.400 216.173,324.400 214.976 C 324.400 213.779,324.580 212.800,324.800 212.800 C 325.031 212.800,325.200 211.533,325.200 209.800 C 325.200 208.150,325.363 206.800,325.563 206.800 C 326.076 206.800,326.472 199.891,326.468 191.000 C 326.464 181.811,326.061 174.400,325.565 174.400 C 325.364 174.400,325.200 172.971,325.200 171.224 C 325.200 169.477,325.020 167.936,324.800 167.800 C 324.580 167.664,324.400 166.843,324.400 165.976 C 324.400 165.109,324.220 164.400,324.000 164.400 C 323.780 164.400,323.600 163.590,323.600 162.600 C 323.600 161.610,323.420 160.800,323.200 160.800 C 322.980 160.800,322.800 160.170,322.800 159.400 C 322.800 158.630,322.620 158.000,322.400 158.000 C 322.180 158.000,322.000 157.370,322.000 156.600 C 322.000 155.830,321.820 155.200,321.600 155.200 C 321.380 155.200,321.200 154.570,321.200 153.800 C 321.200 153.030,321.020 152.400,320.800 152.400 C 320.580 152.400,320.400 151.950,320.400 151.400 C 320.400 150.850,320.220 150.400,320.000 150.400 C 319.780 150.400,319.600 149.950,319.600 149.400 C 319.600 148.850,319.420 148.400,319.200 148.400 C 318.980 148.400,318.800 147.950,318.800 147.400 C 318.800 146.850,318.620 146.400,318.400 146.400 C 318.180 146.400,318.000 145.950,318.000 145.400 C 318.000 144.850,317.820 144.400,317.600 144.400 C 317.380 144.400,317.200 143.950,317.200 143.400 C 317.200 142.850,317.020 142.400,316.800 142.400 C 316.580 142.400,316.400 142.130,316.400 141.800 C 316.400 141.470,316.220 141.200,316.000 141.200 C 315.780 141.200,315.600 140.840,315.600 140.400 C 315.600 139.960,315.420 139.600,315.200 139.600 C 314.980 139.600,314.800 139.240,314.800 138.800 C 314.800 138.360,314.620 138.000,314.400 138.000 C 314.180 138.000,314.000 137.640,314.000 137.200 C 314.000 136.760,313.864 136.400,313.698 136.400 C 313.531 136.400,313.141 135.815,312.830 135.100 C 312.519 134.385,312.160 133.710,312.032 133.600 C 311.493 133.135,310.800 131.550,310.800 130.782 C 310.800 130.326,310.620 130.064,310.400 130.200 C 310.180 130.336,310.000 130.167,310.000 129.824 C 310.000 129.481,309.820 129.200,309.600 129.200 C 309.380 129.200,309.200 128.840,309.200 128.400 C 309.200 127.960,309.020 127.600,308.800 127.600 C 308.580 127.600,308.400 127.240,308.400 126.800 C 308.400 126.360,308.220 126.000,308.000 126.000 C 307.780 126.000,307.600 125.719,307.600 125.376 C 307.600 125.033,307.447 124.847,307.260 124.963 C 307.073 125.078,306.668 124.684,306.360 124.086 C 306.052 123.489,305.573 122.760,305.296 122.468 C 305.019 122.175,304.895 121.770,305.020 121.568 C 305.145 121.365,305.064 121.200,304.839 121.200 C 304.177 121.200,302.800 119.512,302.800 118.701 C 302.800 118.289,302.655 118.043,302.477 118.152 C 302.299 118.262,301.816 117.902,301.403 117.352 C 300.990 116.802,300.236 115.868,299.727 115.276 C 299.218 114.684,298.801 114.053,298.800 113.874 C 298.800 113.695,297.900 112.671,296.800 111.600 C 295.700 110.529,294.800 109.370,294.800 109.026 C 294.800 108.682,294.522 108.400,294.182 108.400 C 293.532 108.400,292.095 107.072,291.373 105.803 C 291.139 105.391,290.607 104.861,290.193 104.627 C 289.778 104.392,288.587 103.345,287.545 102.300 C 286.504 101.255,285.460 100.400,285.226 100.400 C 284.992 100.400,284.800 100.248,284.800 100.061 C 284.800 99.501,283.343 98.000,282.800 98.000 C 282.522 98.000,282.003 97.676,281.647 97.281 C 281.291 96.886,280.370 96.123,279.600 95.585 C 278.830 95.048,277.678 94.112,277.041 93.504 C 276.403 92.897,275.717 92.400,275.517 92.400 C 275.317 92.400,275.267 92.216,275.406 91.990 C 275.545 91.765,275.511 91.625,275.330 91.679 C 274.860 91.821,272.400 90.665,272.400 90.302 C 272.400 90.136,272.164 90.000,271.875 90.000 C 271.587 90.000,270.964 89.640,270.492 89.200 C 270.020 88.760,269.356 88.400,269.017 88.400 C 268.678 88.400,268.400 88.220,268.400 88.000 C 268.400 87.780,268.130 87.600,267.800 87.600 C 267.470 87.600,267.200 87.420,267.200 87.200 C 267.200 86.980,266.930 86.800,266.600 86.800 C 266.270 86.800,266.000 86.620,266.000 86.400 C 266.000 86.180,265.640 86.000,265.200 86.000 C 264.760 86.000,264.400 85.841,264.400 85.647 C 264.400 85.452,264.085 85.193,263.700 85.071 C 262.764 84.775,260.634 83.476,260.467 83.100 C 260.393 82.935,259.988 82.800,259.567 82.800 C 259.145 82.800,258.800 82.620,258.800 82.400 C 258.800 82.180,258.530 82.000,258.200 82.000 C 257.870 82.000,257.600 81.820,257.600 81.600 C 257.600 81.380,257.229 81.200,256.776 81.200 C 256.323 81.200,256.064 81.020,256.200 80.800 C 256.340 80.573,256.004 80.400,255.424 80.400 C 254.861 80.400,254.400 80.220,254.400 80.000 C 254.400 79.780,254.040 79.600,253.600 79.600 C 253.160 79.600,252.800 79.420,252.800 79.200 C 252.800 78.980,252.440 78.800,252.000 78.800 C 251.560 78.800,251.200 78.620,251.200 78.400 C 251.200 78.180,250.761 78.000,250.224 78.000 C 249.687 78.000,249.136 77.820,249.000 77.600 C 248.864 77.380,248.403 77.200,247.976 77.200 C 247.549 77.200,247.200 77.020,247.200 76.800 C 247.200 76.580,246.928 76.400,246.595 76.400 C 246.262 76.400,245.677 76.241,245.295 76.047 C 244.266 75.523,242.799 74.971,241.000 74.429 C 240.120 74.164,239.040 73.796,238.600 73.611 C 238.160 73.426,236.940 73.053,235.890 72.782 C 234.839 72.512,233.883 72.135,233.766 71.945 C 233.649 71.755,233.111 71.600,232.571 71.600 C 232.031 71.600,231.277 71.441,230.895 71.247 C 229.678 70.628,228.248 70.101,226.500 69.628 C 225.565 69.375,224.800 68.995,224.800 68.784 C 224.800 68.573,224.271 68.400,223.624 68.400 C 222.977 68.400,222.336 68.220,222.200 68.000 C 222.064 67.780,221.693 67.600,221.376 67.600 C 221.059 67.600,220.800 67.780,220.800 68.000 M249.659 151.106 C 249.248 151.861,249.268 152.051,249.783 152.249 C 250.122 152.379,250.400 152.730,250.400 153.029 C 250.400 153.880,251.868 154.522,252.147 153.793 C 252.273 153.467,252.156 153.199,251.887 153.198 C 251.619 153.197,251.119 152.522,250.776 151.698 C 250.162 150.224,250.144 150.215,249.659 151.106 M251.200 155.400 C 251.200 155.730,251.380 156.000,251.600 156.000 C 251.820 156.000,252.000 155.730,252.000 155.400 C 252.000 155.070,251.820 154.800,251.600 154.800 C 251.380 154.800,251.200 155.070,251.200 155.400 M252.144 168.602 C 252.006 168.960,252.098 169.458,252.347 169.707 C 252.596 169.956,252.814 170.079,252.831 169.980 C 252.847 169.881,252.921 169.486,252.995 169.102 C 253.172 168.180,252.465 167.765,252.144 168.602 M246.000 216.153 C 246.000 216.483,246.180 216.864,246.400 217.000 C 246.620 217.136,246.800 216.977,246.800 216.647 C 246.800 216.317,246.620 215.936,246.400 215.800 C 246.180 215.664,246.000 215.823,246.000 216.153 M257.600 225.800 C 257.600 226.130,257.420 226.400,257.200 226.400 C 256.980 226.400,256.800 226.130,256.800 225.800 C 256.800 225.470,256.980 225.200,257.200 225.200 C 257.420 225.200,257.600 225.470,257.600 225.800 M263.313 233.300 C 263.225 233.465,262.983 233.600,262.776 233.600 C 262.331 233.600,262.268 231.865,262.698 231.435 C 263.020 231.113,263.578 232.805,263.313 233.300 M291.400 257.200 C 291.264 257.420,291.423 257.600,291.753 257.600 C 292.083 257.600,292.464 257.420,292.600 257.200 C 292.736 256.980,292.577 256.800,292.247 256.800 C 291.917 256.800,291.536 256.980,291.400 257.200 M302.400 259.000 C 302.400 259.550,302.220 260.000,302.000 260.000 C 301.780 260.000,301.600 259.550,301.600 259.000 C 301.600 258.450,301.780 258.000,302.000 258.000 C 302.220 258.000,302.400 258.450,302.400 259.000 M295.700 262.292 C 295.153 262.483,295.002 263.600,295.524 263.600 C 295.701 263.600,296.177 263.359,296.580 263.064 C 297.366 262.489,296.731 261.933,295.700 262.292 M293.994 264.207 C 293.628 264.648,293.599 264.959,293.897 265.257 C 294.195 265.555,294.402 265.422,294.597 264.810 C 294.951 263.694,294.661 263.404,293.994 264.207 M296.883 266.238 C 296.419 267.067,296.753 268.800,297.377 268.800 C 298.075 268.800,299.600 267.067,299.600 266.274 C 299.600 265.379,297.380 265.350,296.883 266.238 " stroke="none" fill="#3fc9f6" fill-rule="evenodd"></path><path id="path3" d="M210.800 245.206 C 210.267 245.556,210.267 245.644,210.800 245.994 C 211.699 246.584,212.000 246.486,212.000 245.600 C 212.000 244.714,211.699 244.616,210.800 245.206 M201.304 251.794 C 200.991 252.149,200.954 252.448,201.204 252.602 C 201.422 252.737,201.600 252.657,201.600 252.424 C 201.600 252.191,201.870 252.000,202.200 252.000 C 202.530 252.000,202.800 251.820,202.800 251.600 C 202.800 251.019,201.881 251.138,201.304 251.794 M204.596 253.709 C 204.030 254.609,203.378 255.063,202.396 255.242 C 200.613 255.566,198.544 256.649,198.252 257.410 C 197.922 258.268,197.328 258.132,197.068 257.140 C 196.823 256.201,195.832 256.608,193.835 258.468 C 193.403 258.871,192.919 259.200,192.760 259.200 C 192.412 259.200,191.812 262.298,191.959 263.337 C 192.038 263.897,191.880 264.016,191.302 263.832 C 190.508 263.580,189.669 264.646,189.442 266.195 C 189.380 266.614,189.120 267.027,188.863 267.112 C 188.605 267.198,188.485 267.414,188.595 267.593 C 188.706 267.771,188.528 268.430,188.200 269.058 C 187.873 269.686,187.604 270.504,187.602 270.876 C 187.601 271.248,187.434 271.655,187.231 271.781 C 186.706 272.105,186.666 285.600,187.189 285.600 C 187.415 285.600,187.600 286.140,187.600 286.800 C 187.600 287.460,187.744 288.000,187.920 288.000 C 188.095 288.000,188.481 288.675,188.777 289.500 C 189.072 290.325,189.648 291.429,190.057 291.954 C 190.466 292.479,190.800 293.334,190.800 293.854 C 190.800 294.374,190.980 294.800,191.200 294.800 C 191.420 294.800,191.600 295.060,191.600 295.378 C 191.600 295.697,192.815 297.252,194.300 298.834 C 198.944 303.783,200.968 305.600,201.836 305.600 C 202.198 305.600,203.106 306.137,203.855 306.794 C 204.603 307.451,205.661 308.101,206.207 308.238 C 206.753 308.375,207.200 308.647,207.200 308.843 C 207.200 309.040,207.584 309.200,208.054 309.200 C 209.288 309.200,212.000 310.068,212.000 310.463 C 212.000 310.648,212.619 310.800,213.376 310.800 C 214.133 310.800,214.864 310.980,215.000 311.200 C 215.136 311.420,216.057 311.600,217.047 311.600 C 218.145 311.600,218.751 311.756,218.600 312.000 C 218.464 312.220,218.528 312.400,218.743 312.400 C 218.958 312.400,219.225 312.175,219.336 311.900 C 219.489 311.524,219.645 311.548,219.970 312.000 C 220.291 312.449,220.478 312.479,220.711 312.121 C 220.915 311.805,221.222 311.769,221.611 312.015 C 222.418 312.525,225.717 312.512,225.400 312.000 C 225.243 311.745,226.396 311.600,228.576 311.600 C 230.592 311.600,232.000 311.436,232.000 311.200 C 232.000 310.980,232.990 310.800,234.200 310.800 C 235.410 310.800,236.400 310.620,236.400 310.400 C 236.400 310.180,236.904 310.000,237.520 310.000 C 238.136 310.000,238.819 309.821,239.038 309.602 C 239.256 309.384,239.944 309.163,240.565 309.111 C 241.187 309.060,241.780 308.796,241.884 308.526 C 242.006 308.209,242.499 308.120,243.277 308.275 C 243.997 308.419,244.594 308.333,244.763 308.060 C 244.918 307.809,245.517 307.565,246.094 307.517 C 246.670 307.469,247.047 307.276,246.931 307.088 C 246.815 306.900,247.098 306.647,247.560 306.526 C 248.022 306.406,248.400 306.127,248.400 305.907 C 248.400 305.687,248.850 305.593,249.400 305.698 C 250.033 305.819,250.400 305.707,250.400 305.391 C 250.400 304.787,248.891 304.329,248.577 304.838 C 248.150 305.527,246.973 305.195,245.689 304.023 C 244.244 302.702,244.134 302.318,245.000 301.600 C 245.832 300.909,245.750 299.964,244.837 299.726 C 244.254 299.573,243.260 297.860,243.711 297.785 C 243.760 297.777,243.216 297.147,242.502 296.385 C 241.788 295.623,241.203 294.874,241.202 294.721 C 241.199 294.304,239.461 292.507,239.000 292.445 C 236.975 292.170,234.930 290.700,234.618 289.295 C 234.442 288.502,233.937 288.015,232.787 287.530 C 231.706 287.073,231.184 286.595,231.150 286.030 C 231.064 284.607,231.009 284.400,230.709 284.391 C 230.333 284.379,228.214 282.287,228.206 281.920 C 228.195 281.390,227.398 280.868,226.400 280.734 C 225.726 280.644,225.436 280.382,225.511 279.930 C 225.571 279.562,225.436 279.146,225.211 279.007 C 224.985 278.867,224.800 278.393,224.800 277.953 C 224.800 277.450,224.628 277.259,224.338 277.438 C 224.028 277.630,223.982 277.539,224.199 277.162 C 224.976 275.808,225.802 275.200,226.862 275.200 C 227.488 275.200,228.000 274.997,228.000 274.748 C 228.000 274.429,228.824 274.378,230.800 274.573 C 232.983 274.788,233.599 274.733,233.597 274.324 C 233.591 273.398,231.837 272.913,229.557 273.206 C 228.371 273.359,226.815 273.405,226.100 273.309 C 225.108 273.176,224.800 273.285,224.800 273.767 C 224.800 274.124,224.466 274.400,224.033 274.400 C 223.612 274.400,223.162 274.625,223.033 274.900 C 222.847 275.300,222.753 275.300,222.567 274.900 C 222.438 274.625,221.808 274.400,221.167 274.400 C 220.525 274.400,220.000 274.232,220.000 274.027 C 220.000 273.294,222.349 272.000,223.680 272.000 L 225.037 272.000 224.818 270.100 L 224.600 268.200 222.902 268.077 C 221.704 267.990,221.079 267.722,220.782 267.166 C 220.550 266.732,220.210 266.470,220.026 266.584 C 219.708 266.780,219.151 265.653,218.597 263.692 C 218.382 262.930,218.567 262.689,219.743 262.198 C 221.983 261.262,221.380 258.785,218.917 258.806 C 218.372 258.811,218.328 258.893,218.734 259.151 C 219.140 259.408,219.068 259.541,218.434 259.707 C 217.975 259.827,217.600 259.791,217.600 259.626 C 217.600 259.461,216.664 259.294,215.520 259.253 C 214.376 259.213,213.161 258.928,212.820 258.621 C 212.479 258.314,211.570 257.987,210.800 257.895 L 209.400 257.728 211.000 257.611 L 212.600 257.495 211.200 257.200 L 209.800 256.905 211.051 256.853 C 211.739 256.824,212.527 256.529,212.801 256.198 C 213.128 255.805,213.866 255.632,214.935 255.698 C 216.246 255.780,216.600 255.655,216.720 255.068 C 216.851 254.433,216.617 254.346,214.935 254.404 C 208.367 254.632,206.900 254.454,206.636 253.400 C 206.298 252.054,205.568 252.164,204.596 253.709 M228.900 275.476 C 229.285 275.576,229.915 275.576,230.300 275.476 C 230.685 275.375,230.370 275.293,229.600 275.293 C 228.830 275.293,228.515 275.375,228.900 275.476 M240.800 288.176 C 240.800 288.739,240.980 289.200,241.200 289.200 C 241.420 289.200,241.600 288.851,241.600 288.424 C 241.600 287.997,241.420 287.536,241.200 287.400 C 240.973 287.260,240.800 287.596,240.800 288.176 M254.400 300.400 C 254.400 300.620,254.850 300.800,255.400 300.800 C 256.133 300.800,256.400 301.013,256.400 301.600 C 256.400 302.538,257.021 302.636,257.832 301.826 C 258.191 301.466,258.255 301.158,258.003 301.002 C 257.781 300.865,257.600 300.943,257.600 301.176 C 257.600 301.409,257.420 301.600,257.200 301.600 C 256.980 301.600,256.800 301.240,256.800 300.800 C 256.800 300.178,256.533 300.000,255.600 300.000 C 254.940 300.000,254.400 300.180,254.400 300.400 M252.798 303.201 C 252.115 303.623,252.373 303.964,253.546 304.190 C 254.500 304.373,254.668 303.921,253.887 303.272 C 253.573 303.012,253.149 302.984,252.798 303.201 " stroke="none" fill="#7170fb" fill-rule="evenodd"></path><path id="path4" d="M218.103 68.175 C 216.740 68.929,215.600 70.061,215.600 70.662 C 215.600 71.491,216.066 71.302,217.744 69.791 C 218.593 69.026,219.628 68.400,220.044 68.400 C 220.460 68.400,220.800 68.220,220.800 68.000 C 220.800 67.460,219.209 67.563,218.103 68.175 M222.200 68.000 C 222.336 68.220,222.887 68.400,223.424 68.400 C 223.961 68.400,224.400 68.220,224.400 68.000 C 224.400 67.780,223.849 67.600,223.176 67.600 C 222.463 67.600,222.056 67.767,222.200 68.000 M224.800 68.784 C 224.800 68.995,225.565 69.375,226.500 69.628 C 228.248 70.101,229.678 70.628,230.895 71.247 C 231.830 71.723,233.200 71.695,233.200 71.200 C 233.200 70.980,232.761 70.800,232.224 70.800 C 231.687 70.800,231.136 70.620,231.000 70.400 C 230.864 70.180,230.401 70.000,229.971 70.000 C 229.541 70.000,228.787 69.792,228.295 69.538 C 226.418 68.567,225.993 68.400,225.405 68.400 C 225.072 68.400,224.800 68.573,224.800 68.784 M215.056 71.878 C 214.197 72.736,215.620 76.745,217.467 78.668 C 217.944 79.164,218.827 80.477,219.431 81.585 C 220.360 83.294,221.200 84.152,221.200 83.395 C 221.200 82.648,217.595 77.173,216.937 76.921 C 216.616 76.797,216.451 76.443,216.570 76.133 C 216.689 75.823,216.520 75.468,216.195 75.343 C 215.754 75.174,215.665 74.733,215.845 73.608 C 216.069 72.208,215.648 71.285,215.056 71.878 M233.820 71.945 C 234.811 72.846,238.000 73.498,238.000 72.800 C 238.000 72.580,237.651 72.400,237.224 72.400 C 236.797 72.400,236.336 72.220,236.200 72.000 C 236.064 71.780,235.387 71.600,234.696 71.600 C 233.964 71.600,233.599 71.744,233.820 71.945 M238.620 73.530 C 238.829 73.712,239.810 74.093,240.800 74.376 C 242.681 74.914,244.121 75.450,245.295 76.047 C 246.210 76.513,246.800 76.494,246.800 76.000 C 246.800 75.780,246.528 75.600,246.195 75.600 C 245.862 75.600,245.277 75.441,244.895 75.247 C 244.513 75.052,243.660 74.671,243.000 74.400 C 242.340 74.129,241.487 73.748,241.105 73.553 C 240.224 73.105,238.108 73.086,238.620 73.530 M247.200 76.800 C 247.200 77.020,247.524 77.200,247.920 77.200 C 248.316 77.200,248.837 77.397,249.078 77.638 C 249.318 77.878,249.849 78.008,250.258 77.925 C 250.844 77.807,250.714 77.631,249.639 77.088 C 248.105 76.313,247.200 76.207,247.200 76.800 M254.400 80.000 C 254.400 80.220,254.670 80.400,255.000 80.400 C 255.330 80.400,255.600 80.220,255.600 80.000 C 255.600 79.780,255.330 79.600,255.000 79.600 C 254.670 79.600,254.400 79.780,254.400 80.000 M257.600 81.600 C 257.600 81.820,257.870 82.000,258.200 82.000 C 258.530 82.000,258.800 82.180,258.800 82.400 C 258.800 82.620,259.104 82.800,259.475 82.800 C 260.048 82.800,260.020 82.678,259.292 82.000 C 258.366 81.138,257.600 80.956,257.600 81.600 M260.400 83.153 C 260.400 83.348,260.715 83.607,261.100 83.729 C 262.036 84.025,264.166 85.324,264.333 85.700 C 264.407 85.865,264.812 86.000,265.233 86.000 C 265.655 86.000,266.000 86.180,266.000 86.400 C 266.000 86.620,266.270 86.800,266.600 86.800 C 266.930 86.800,267.200 86.980,267.200 87.200 C 267.200 87.420,267.470 87.600,267.800 87.600 C 268.130 87.600,268.400 87.780,268.400 88.000 C 268.400 88.220,268.678 88.400,269.017 88.400 C 269.356 88.400,270.020 88.760,270.492 89.200 C 270.964 89.640,271.587 90.000,271.875 90.000 C 272.164 90.000,272.400 90.180,272.400 90.400 C 272.400 90.620,272.597 90.800,272.838 90.800 C 273.079 90.800,273.816 91.184,274.475 91.653 L 275.673 92.507 275.141 91.653 C 274.847 91.184,274.461 90.800,274.282 90.800 C 274.103 90.800,272.920 90.096,271.654 89.236 C 268.755 87.268,266.008 85.633,265.100 85.336 C 264.715 85.210,264.400 84.948,264.400 84.753 C 264.400 84.559,264.175 84.396,263.900 84.391 C 263.625 84.386,262.950 84.030,262.400 83.600 C 261.343 82.773,260.400 82.563,260.400 83.153 M221.200 84.320 C 221.200 84.900,222.194 86.794,222.500 86.797 C 222.665 86.799,222.800 86.530,222.800 86.200 C 222.800 85.870,222.620 85.600,222.400 85.600 C 222.180 85.600,222.000 85.240,222.000 84.800 C 222.000 84.360,221.820 84.000,221.600 84.000 C 221.380 84.000,221.200 84.144,221.200 84.320 M222.800 87.776 C 222.800 88.093,222.980 88.464,223.200 88.600 C 223.420 88.736,223.600 88.477,223.600 88.024 C 223.600 87.571,223.420 87.200,223.200 87.200 C 222.980 87.200,222.800 87.459,222.800 87.776 M223.600 89.776 C 223.600 90.093,223.780 90.464,224.000 90.600 C 224.220 90.736,224.400 90.477,224.400 90.024 C 224.400 89.571,224.220 89.200,224.000 89.200 C 223.780 89.200,223.600 89.459,223.600 89.776 M224.596 92.100 C 224.375 92.720,224.550 93.884,224.922 94.255 C 225.075 94.408,225.200 93.873,225.200 93.067 C 225.200 91.596,224.930 91.164,224.596 92.100 M277.041 93.504 C 277.678 94.112,278.830 95.048,279.600 95.585 C 280.370 96.123,281.316 96.914,281.703 97.345 C 282.089 97.776,282.492 98.041,282.599 97.934 C 282.838 97.695,279.185 94.000,278.710 94.000 C 278.521 94.000,277.980 93.640,277.508 93.200 C 277.036 92.760,276.476 92.400,276.265 92.400 C 276.054 92.400,276.403 92.897,277.041 93.504 M225.281 96.830 C 225.414 98.576,226.000 98.733,226.000 97.024 C 226.000 96.241,225.817 95.600,225.594 95.600 C 225.370 95.600,225.229 96.154,225.281 96.830 M284.800 100.000 C 284.800 100.220,284.992 100.400,285.226 100.400 C 285.460 100.400,286.549 101.321,287.646 102.447 C 288.742 103.573,289.740 104.393,289.863 104.270 C 290.105 104.028,285.594 99.607,285.100 99.603 C 284.935 99.601,284.800 99.780,284.800 100.000 M294.800 109.418 C 294.800 109.720,296.706 111.600,297.012 111.600 C 297.359 111.600,295.469 109.249,295.100 109.222 C 294.935 109.210,294.800 109.298,294.800 109.418 M225.452 111.300 C 225.068 112.732,225.162 115.200,225.600 115.200 C 225.822 115.200,226.000 114.133,226.000 112.800 C 226.000 110.255,225.846 109.832,225.452 111.300 M299.200 114.595 C 301.242 117.247,302.400 118.561,302.400 118.223 C 302.400 117.568,301.043 115.746,299.855 114.808 C 298.940 114.084,298.762 114.027,299.200 114.595 M224.782 116.100 C 224.431 118.059,224.422 120.400,224.767 120.400 C 225.025 120.400,225.200 119.512,225.200 118.200 C 225.200 116.523,224.940 115.218,224.782 116.100 M302.800 119.125 C 302.800 119.488,304.316 121.200,304.638 121.200 C 304.752 121.200,304.526 120.660,304.136 120.000 C 303.462 118.858,302.800 118.425,302.800 119.125 M223.900 121.829 C 223.735 121.996,223.600 122.643,223.600 123.267 C 223.600 123.890,223.420 124.400,223.200 124.400 C 222.980 124.400,222.800 124.839,222.800 125.376 C 222.800 125.913,222.620 126.464,222.400 126.600 C 222.180 126.736,222.000 127.197,222.000 127.624 C 222.000 128.051,221.820 128.400,221.600 128.400 C 221.380 128.400,221.200 128.760,221.200 129.200 C 221.200 129.640,221.020 130.000,220.800 130.000 C 220.580 130.000,220.400 130.278,220.400 130.617 C 220.400 130.956,220.040 131.620,219.600 132.092 C 219.160 132.564,218.800 133.187,218.800 133.475 C 218.800 133.764,218.659 134.000,218.486 134.000 C 218.314 134.000,217.851 134.545,217.457 135.211 C 217.064 135.877,216.305 136.859,215.771 137.393 C 215.237 137.927,214.800 138.559,214.800 138.799 C 214.800 139.038,214.440 139.620,214.000 140.092 C 213.089 141.070,212.968 142.227,213.700 142.952 C 214.357 143.603,220.294 147.600,220.604 147.600 C 220.984 147.600,225.785 150.908,225.933 151.272 C 226.007 151.453,226.329 151.600,226.650 151.600 C 226.971 151.600,227.620 151.960,228.092 152.400 C 228.564 152.840,229.187 153.200,229.475 153.200 C 229.764 153.200,230.000 153.359,230.000 153.553 C 230.000 153.748,230.315 154.007,230.700 154.129 C 231.647 154.429,233.661 155.664,234.403 156.400 C 234.736 156.730,235.412 157.225,235.904 157.500 C 238.178 158.769,238.610 159.045,239.355 159.700 C 239.793 160.085,240.275 160.400,240.427 160.400 C 240.879 160.400,248.952 168.484,250.013 170.000 C 250.553 170.770,251.670 172.119,252.497 172.998 C 253.324 173.877,254.000 174.822,254.000 175.098 C 254.000 175.374,254.159 175.600,254.354 175.600 C 255.975 175.600,256.145 180.745,254.784 188.600 C 254.556 189.920,254.267 191.676,254.142 192.503 C 254.017 193.329,253.755 194.105,253.558 194.226 C 253.361 194.348,253.200 194.979,253.200 195.629 C 253.200 196.279,253.020 197.168,252.800 197.605 C 252.580 198.042,252.220 198.758,252.000 199.195 C 251.780 199.632,251.600 200.346,251.600 200.782 C 251.600 201.219,251.240 202.217,250.800 203.000 C 250.360 203.783,249.996 204.644,249.991 204.912 C 249.986 205.180,249.630 205.850,249.200 206.400 C 248.770 206.950,248.414 207.805,248.409 208.300 C 248.404 208.795,248.220 209.200,248.000 209.200 C 247.780 209.200,247.600 209.478,247.600 209.817 C 247.600 210.156,247.240 210.820,246.800 211.292 C 246.360 211.764,246.000 212.454,246.000 212.825 C 246.000 213.196,245.280 214.287,244.400 215.249 C 243.520 216.212,242.800 217.191,242.800 217.425 C 242.800 217.659,242.260 218.368,241.600 219.000 C 240.940 219.632,240.400 220.346,240.400 220.587 C 240.400 220.827,240.040 221.283,239.600 221.600 C 239.160 221.917,238.800 222.386,238.800 222.642 C 238.800 222.898,238.307 223.431,237.703 223.827 C 237.100 224.222,235.795 225.372,234.803 226.384 C 233.812 227.395,232.370 228.659,231.600 229.192 C 230.830 229.726,229.930 230.449,229.600 230.800 C 229.270 231.151,228.370 231.872,227.600 232.404 C 226.830 232.935,225.750 233.837,225.200 234.409 C 224.650 234.981,223.930 235.553,223.600 235.681 C 223.043 235.896,218.299 239.287,216.695 240.616 C 216.308 240.937,215.723 241.200,215.395 241.200 C 215.068 241.200,214.800 241.380,214.800 241.600 C 214.800 241.820,214.629 242.000,214.420 242.000 C 214.211 242.000,213.201 242.585,212.176 243.300 C 211.151 244.015,209.752 244.934,209.067 245.342 C 208.382 245.750,207.525 246.425,207.164 246.842 C 206.802 247.259,206.212 247.600,205.853 247.600 C 205.494 247.600,205.200 247.881,205.200 248.224 C 205.200 248.567,205.022 248.737,204.803 248.602 C 204.355 248.325,201.395 250.257,199.010 252.383 C 195.447 255.559,192.400 258.547,192.400 258.863 C 192.400 259.413,192.996 259.249,193.835 258.468 C 195.832 256.608,196.823 256.201,197.068 257.140 C 197.328 258.132,197.922 258.268,198.252 257.410 C 198.544 256.649,200.613 255.566,202.396 255.242 C 203.378 255.063,204.030 254.609,204.596 253.709 C 205.568 252.164,206.298 252.054,206.636 253.400 C 206.900 254.454,208.367 254.632,214.935 254.404 C 216.617 254.346,216.851 254.433,216.720 255.068 C 216.600 255.655,216.246 255.780,214.935 255.698 C 213.866 255.632,213.128 255.805,212.801 256.198 C 212.527 256.529,211.739 256.824,211.051 256.853 L 209.800 256.905 211.200 257.200 L 212.600 257.495 211.000 257.611 L 209.400 257.728 210.800 257.895 C 211.570 257.987,212.479 258.314,212.820 258.621 C 213.161 258.928,214.376 259.213,215.520 259.253 C 216.664 259.294,217.600 259.461,217.600 259.626 C 217.600 259.791,217.975 259.827,218.434 259.707 C 219.068 259.541,219.140 259.408,218.734 259.151 C 218.328 258.893,218.372 258.811,218.917 258.806 C 221.380 258.785,221.983 261.262,219.743 262.198 C 218.567 262.689,218.382 262.930,218.597 263.692 C 219.151 265.653,219.708 266.780,220.026 266.584 C 220.210 266.470,220.550 266.732,220.782 267.166 C 221.079 267.722,221.704 267.990,222.902 268.077 L 224.600 268.200 224.818 270.100 L 225.037 272.000 223.680 272.000 C 222.349 272.000,220.000 273.294,220.000 274.027 C 220.000 274.232,220.525 274.400,221.167 274.400 C 221.808 274.400,222.438 274.625,222.567 274.900 C 222.753 275.300,222.847 275.300,223.033 274.900 C 223.162 274.625,223.612 274.400,224.033 274.400 C 224.466 274.400,224.800 274.124,224.800 273.767 C 224.800 273.285,225.108 273.176,226.100 273.309 C 226.815 273.405,228.371 273.359,229.557 273.206 C 231.837 272.913,233.591 273.398,233.597 274.324 C 233.599 274.733,232.983 274.788,230.800 274.573 C 228.824 274.378,228.000 274.429,228.000 274.748 C 228.000 274.997,227.488 275.200,226.862 275.200 C 225.802 275.200,224.976 275.808,224.199 277.162 C 223.982 277.539,224.028 277.630,224.338 277.438 C 224.628 277.259,224.800 277.450,224.800 277.953 C 224.800 278.393,224.985 278.867,225.211 279.007 C 225.436 279.146,225.571 279.562,225.511 279.930 C 225.436 280.381,225.727 280.645,226.400 280.738 C 227.458 280.885,228.429 281.500,228.294 281.938 C 228.197 282.251,230.074 284.157,230.618 284.300 C 231.008 284.402,231.063 284.579,231.150 286.030 C 231.184 286.595,231.706 287.073,232.787 287.530 C 233.937 288.015,234.442 288.502,234.618 289.295 C 234.929 290.696,237.759 292.697,238.861 292.295 C 239.161 292.186,241.199 294.298,241.202 294.721 C 241.203 294.874,241.748 295.580,242.413 296.290 C 243.078 296.999,243.633 297.670,243.646 297.781 C 243.777 298.864,244.202 299.560,244.837 299.726 C 245.750 299.964,245.832 300.909,245.000 301.600 C 244.134 302.318,244.244 302.702,245.689 304.023 C 246.973 305.195,248.150 305.527,248.577 304.838 C 248.891 304.329,250.400 304.787,250.400 305.391 C 250.400 305.707,250.033 305.819,249.400 305.698 C 248.816 305.586,248.400 305.693,248.400 305.953 C 248.400 306.199,248.152 306.400,247.849 306.400 C 247.546 306.400,247.074 306.670,246.800 307.000 C 246.526 307.330,245.964 307.600,245.551 307.600 C 245.138 307.600,244.800 307.804,244.800 308.052 C 244.800 308.344,244.314 308.426,243.431 308.283 C 242.555 308.140,241.996 308.233,241.879 308.539 C 241.778 308.802,241.187 309.060,240.565 309.111 C 239.944 309.163,239.256 309.384,239.038 309.602 C 238.819 309.821,238.136 310.000,237.520 310.000 C 236.904 310.000,236.400 310.180,236.400 310.400 C 236.400 311.017,240.694 310.239,241.447 309.486 C 241.605 309.329,242.108 309.197,242.567 309.194 C 243.793 309.185,246.549 308.154,246.720 307.640 C 246.802 307.395,247.049 307.306,247.269 307.443 C 247.489 307.579,248.419 307.329,249.335 306.887 C 250.251 306.445,251.675 305.786,252.500 305.423 C 253.325 305.060,254.000 304.580,254.000 304.358 C 254.000 304.135,253.856 304.042,253.681 304.150 C 253.006 304.567,252.142 303.638,252.800 303.202 C 253.244 302.908,253.583 303.024,254.102 303.649 L 254.804 304.494 258.502 302.627 C 262.561 300.578,263.804 299.896,266.200 298.400 C 268.999 296.653,270.181 295.984,270.900 295.742 C 271.285 295.613,271.600 295.390,271.600 295.248 C 271.600 295.105,272.320 294.544,273.200 294.000 C 274.080 293.456,274.800 292.874,274.800 292.706 C 274.800 292.538,275.030 292.400,275.311 292.400 C 275.592 292.400,276.413 291.860,277.136 291.200 C 277.858 290.540,278.573 290.000,278.725 289.999 C 278.876 289.999,280.141 288.919,281.536 287.599 C 282.931 286.280,284.209 285.200,284.377 285.200 C 284.851 285.200,290.499 279.567,291.597 278.000 C 292.136 277.230,293.971 275.178,295.675 273.439 C 297.378 271.701,298.700 270.162,298.612 270.019 C 298.524 269.877,299.250 268.996,300.226 268.062 C 301.202 267.128,302.000 266.102,302.000 265.782 C 302.000 265.462,302.138 265.200,302.306 265.200 C 302.474 265.200,303.056 264.480,303.600 263.600 C 304.144 262.720,304.726 262.000,304.894 262.000 C 305.062 262.000,305.200 261.768,305.200 261.485 C 305.200 261.202,305.733 260.347,306.384 259.585 C 307.035 258.823,307.575 257.975,307.584 257.700 C 307.593 257.425,307.735 257.199,307.900 257.197 C 308.065 257.195,308.399 256.790,308.641 256.297 C 309.630 254.288,311.635 250.671,312.316 249.668 C 313.282 248.246,317.447 239.569,318.397 237.000 C 318.850 235.776,319.653 233.879,320.047 233.105 C 320.241 232.723,320.400 232.059,320.400 231.629 C 320.400 231.199,320.580 230.736,320.800 230.600 C 321.020 230.464,321.200 229.924,321.200 229.400 C 321.200 228.876,321.380 228.336,321.600 228.200 C 321.820 228.064,322.000 227.524,322.000 227.000 C 322.000 226.476,322.180 225.936,322.400 225.800 C 322.620 225.664,322.800 225.203,322.800 224.776 C 322.800 224.349,322.620 224.000,322.400 224.000 C 322.180 224.000,322.000 224.345,322.000 224.767 C 322.000 225.188,321.830 225.593,321.623 225.667 C 321.415 225.740,321.034 226.700,320.776 227.800 C 320.517 228.900,320.147 230.113,319.953 230.495 C 319.759 230.877,319.600 231.445,319.600 231.758 C 319.600 232.070,319.171 233.198,318.646 234.263 C 318.122 235.328,317.383 237.064,317.005 238.121 C 316.627 239.177,315.706 240.950,314.959 242.061 C 314.212 243.172,313.600 244.208,313.600 244.365 C 313.600 244.774,311.945 248.162,311.629 248.400 C 311.213 248.713,308.204 254.965,308.308 255.300 C 308.358 255.465,308.085 255.924,307.700 256.320 C 307.315 256.716,306.550 257.640,306.000 258.374 C 305.450 259.107,304.592 260.178,304.094 260.753 C 303.596 261.329,302.967 262.295,302.697 262.900 C 302.132 264.163,301.727 264.231,299.738 263.400 C 298.585 262.918,298.393 262.691,298.762 262.246 C 299.293 261.606,299.017 258.544,298.357 257.748 C 297.841 257.127,297.162 257.198,296.582 257.934 C 295.891 258.811,293.823 258.360,293.672 257.300 C 293.561 256.519,293.723 256.400,294.897 256.400 C 296.966 256.400,298.400 254.701,298.400 252.250 C 298.400 249.982,296.726 249.504,296.473 251.700 C 296.349 252.778,294.401 253.373,293.860 252.498 C 293.380 251.720,294.130 250.054,295.067 249.819 C 296.388 249.487,296.171 248.200,294.795 248.200 C 293.999 248.200,293.774 248.427,293.670 249.339 C 293.561 250.290,293.396 250.439,292.670 250.244 C 292.191 250.116,291.665 250.008,291.500 250.005 C 291.335 250.002,291.199 249.775,291.197 249.500 C 291.193 248.811,289.313 248.000,287.720 248.000 C 286.994 248.000,286.400 247.820,286.400 247.600 C 286.400 247.380,285.944 247.200,285.387 247.200 C 284.831 247.200,284.276 246.943,284.155 246.628 C 284.035 246.313,283.410 245.873,282.768 245.649 C 281.583 245.236,281.273 244.650,282.000 244.200 C 282.475 243.907,282.542 242.400,282.080 242.400 C 281.904 242.400,281.546 242.614,281.285 242.875 C 280.919 243.241,280.584 243.136,279.817 242.416 C 279.022 241.669,278.708 241.578,278.247 241.961 C 277.855 242.286,277.589 242.305,277.412 242.019 C 276.929 241.238,274.745 241.525,274.516 242.400 C 274.182 243.677,272.867 243.360,271.934 241.777 C 271.424 240.914,270.880 240.437,270.547 240.565 C 270.246 240.680,270.000 240.613,270.000 240.414 C 270.000 240.216,269.595 239.926,269.100 239.770 C 268.605 239.613,267.480 238.901,266.600 238.186 C 265.720 237.471,264.658 236.822,264.239 236.743 C 263.792 236.659,263.417 236.192,263.328 235.610 C 263.245 235.065,262.892 234.460,262.544 234.264 C 262.195 234.069,261.553 233.553,261.118 233.118 C 260.682 232.682,260.022 232.405,259.651 232.503 C 258.535 232.794,257.700 231.609,258.572 230.971 C 258.962 230.686,259.184 230.298,259.066 230.108 C 258.949 229.917,259.011 229.506,259.204 229.194 C 259.414 228.853,259.386 228.424,259.132 228.119 C 258.900 227.839,258.817 227.334,258.946 226.996 C 259.203 226.326,257.879 226.825,257.417 227.573 C 256.627 228.851,252.000 225.264,252.000 223.373 C 252.000 222.864,251.820 222.336,251.600 222.200 C 251.380 222.064,251.200 221.423,251.200 220.776 C 251.200 219.195,250.483 219.271,250.325 220.869 C 250.166 222.478,249.477 222.725,248.869 221.392 C 248.222 219.973,248.282 219.279,249.045 219.344 C 250.255 219.449,250.705 218.089,249.695 217.382 C 249.203 217.037,248.800 216.509,248.800 216.210 C 248.800 215.910,248.486 215.118,248.103 214.450 C 247.246 212.957,248.008 211.597,248.971 212.900 C 249.255 213.285,249.693 213.600,249.944 213.600 C 250.616 213.600,250.499 212.413,249.800 212.145 C 248.875 211.790,249.088 210.313,250.244 209.066 C 250.982 208.270,251.320 207.420,251.399 206.165 C 251.461 205.188,251.690 204.166,251.909 203.894 C 252.128 203.623,252.439 202.770,252.600 202.000 C 252.761 201.230,253.036 200.420,253.211 200.200 C 253.386 199.980,253.744 198.630,254.008 197.200 C 254.271 195.770,254.647 194.287,254.843 193.905 C 255.039 193.523,255.200 192.769,255.200 192.229 C 255.200 191.689,255.380 191.136,255.600 191.000 C 255.820 190.864,256.000 189.874,256.000 188.800 C 256.000 187.726,256.180 186.736,256.400 186.600 C 257.097 186.169,256.863 175.750,256.143 175.153 C 255.731 174.811,255.613 174.258,255.771 173.416 C 255.944 172.493,255.807 172.012,255.231 171.519 C 254.784 171.136,254.541 170.547,254.654 170.117 C 254.971 168.901,252.598 167.081,250.638 167.037 C 248.815 166.996,248.089 165.880,249.577 165.407 C 250.474 165.123,250.673 164.216,249.939 163.762 C 249.686 163.606,249.245 163.798,248.959 164.189 C 248.662 164.595,248.173 164.798,247.819 164.663 C 247.031 164.360,247.020 163.644,247.800 163.345 C 248.155 163.208,248.403 162.601,248.406 161.857 C 248.416 159.910,248.970 159.268,249.908 160.117 C 250.775 160.902,251.200 160.657,251.200 159.373 C 251.200 158.775,251.664 158.205,252.600 157.653 C 254.142 156.743,254.538 154.945,253.404 154.004 C 253.077 153.732,252.914 153.339,253.043 153.131 C 253.339 152.651,252.820 151.215,250.462 146.000 C 248.558 141.789,240.326 133.268,234.398 129.373 C 231.719 127.612,230.395 126.940,225.725 124.974 C 224.670 124.530,224.429 124.186,224.325 122.981 C 224.256 122.180,224.065 121.661,223.900 121.829 M305.055 122.200 C 305.182 122.530,305.402 122.800,305.545 122.800 C 305.688 122.800,306.044 123.341,306.337 124.002 C 306.630 124.664,307.034 125.103,307.235 124.979 C 307.832 124.609,307.665 124.187,306.397 122.859 C 305.069 121.470,304.707 121.292,305.055 122.200 M308.400 127.200 C 308.400 127.420,308.580 127.600,308.800 127.600 C 309.020 127.600,309.200 127.960,309.200 128.400 C 309.200 128.840,309.380 129.200,309.600 129.200 C 309.820 129.200,310.000 129.506,310.000 129.880 C 310.000 130.422,310.101 130.459,310.497 130.063 C 310.814 129.746,310.850 129.465,310.596 129.283 C 310.378 129.128,309.944 128.505,309.632 127.900 C 309.070 126.810,308.400 126.429,308.400 127.200 M310.800 131.205 C 310.800 131.633,311.637 133.260,312.032 133.600 C 312.160 133.710,312.519 134.385,312.830 135.100 C 313.141 135.815,313.531 136.400,313.698 136.400 C 313.864 136.400,314.000 136.760,314.000 137.200 C 314.000 137.640,314.180 138.000,314.400 138.000 C 314.620 138.000,314.800 138.360,314.800 138.800 C 314.800 139.240,314.980 139.600,315.200 139.600 C 315.420 139.600,315.600 139.960,315.600 140.400 C 315.600 140.840,315.780 141.200,316.000 141.200 C 316.220 141.200,316.400 141.470,316.400 141.800 C 316.400 142.130,316.580 142.400,316.800 142.400 C 317.360 142.400,317.418 142.548,315.145 138.164 C 314.015 135.984,312.710 133.439,312.245 132.510 C 311.442 130.903,310.800 130.324,310.800 131.205 M317.200 143.576 C 317.200 144.029,317.380 144.400,317.600 144.400 C 317.820 144.400,318.000 144.141,318.000 143.824 C 318.000 143.507,317.820 143.136,317.600 143.000 C 317.380 142.864,317.200 143.123,317.200 143.576 M318.000 145.800 C 318.000 146.130,318.180 146.400,318.400 146.400 C 318.620 146.400,318.800 146.130,318.800 145.800 C 318.800 145.470,318.620 145.200,318.400 145.200 C 318.180 145.200,318.000 145.470,318.000 145.800 M318.800 147.576 C 318.800 148.029,318.980 148.400,319.200 148.400 C 319.420 148.400,319.600 148.141,319.600 147.824 C 319.600 147.507,319.420 147.136,319.200 147.000 C 318.980 146.864,318.800 147.123,318.800 147.576 M251.887 153.198 C 252.156 153.199,252.273 153.467,252.147 153.793 C 251.868 154.522,250.400 153.880,250.400 153.029 C 250.400 152.730,250.122 152.379,249.783 152.249 C 249.268 152.051,249.248 151.861,249.659 151.106 C 250.144 150.215,250.162 150.224,250.776 151.698 C 251.119 152.522,251.619 153.197,251.887 153.198 M320.400 151.576 C 320.400 152.029,320.580 152.400,320.800 152.400 C 321.020 152.400,321.200 152.141,321.200 151.824 C 321.200 151.507,321.020 151.136,320.800 151.000 C 320.580 150.864,320.400 151.123,320.400 151.576 M321.200 154.176 C 321.200 154.739,321.380 155.200,321.600 155.200 C 321.820 155.200,322.000 154.851,322.000 154.424 C 322.000 153.997,321.820 153.536,321.600 153.400 C 321.373 153.260,321.200 153.596,321.200 154.176 M252.000 155.400 C 252.000 155.730,251.820 156.000,251.600 156.000 C 251.380 156.000,251.200 155.730,251.200 155.400 C 251.200 155.070,251.380 154.800,251.600 154.800 C 251.820 154.800,252.000 155.070,252.000 155.400 M322.000 156.976 C 322.000 157.539,322.180 158.000,322.400 158.000 C 322.620 158.000,322.800 157.651,322.800 157.224 C 322.800 156.797,322.620 156.336,322.400 156.200 C 322.173 156.060,322.000 156.396,322.000 156.976 M322.800 159.576 C 322.800 160.249,322.980 160.800,323.200 160.800 C 323.420 160.800,323.600 160.361,323.600 159.824 C 323.600 159.287,323.420 158.736,323.200 158.600 C 322.967 158.456,322.800 158.863,322.800 159.576 M323.600 162.776 C 323.600 163.669,323.780 164.400,324.000 164.400 C 324.220 164.400,324.400 163.781,324.400 163.024 C 324.400 162.267,324.220 161.536,324.000 161.400 C 323.758 161.251,323.600 161.796,323.600 162.776 M324.400 166.153 C 324.400 166.923,324.580 167.664,324.800 167.800 C 325.038 167.947,325.200 167.479,325.200 166.647 C 325.200 165.877,325.020 165.136,324.800 165.000 C 324.562 164.853,324.400 165.321,324.400 166.153 M252.995 169.102 C 252.921 169.486,252.847 169.881,252.831 169.980 C 252.814 170.079,252.596 169.956,252.347 169.707 C 251.831 169.191,252.200 167.829,252.762 168.176 C 252.964 168.301,253.069 168.717,252.995 169.102 M325.200 171.976 C 325.200 173.325,325.377 174.400,325.600 174.400 C 325.820 174.400,326.000 173.421,326.000 172.224 C 326.000 171.027,325.820 169.936,325.600 169.800 C 325.350 169.646,325.200 170.463,325.200 171.976 M326.258 179.200 C 326.557 185.085,326.527 197.836,326.203 202.600 C 326.022 205.260,326.064 206.466,326.330 206.200 C 327.192 205.336,327.822 188.603,327.211 182.800 C 326.496 176.008,326.000 174.137,326.258 179.200 M325.206 209.500 C 325.210 211.391,325.328 212.020,325.600 211.600 C 326.113 210.807,326.113 206.800,325.600 206.800 C 325.372 206.800,325.203 207.963,325.206 209.500 M324.400 214.920 C 324.400 216.086,324.208 217.232,323.973 217.467 C 323.738 217.702,323.609 218.593,323.688 219.447 C 323.830 221.000,323.830 221.000,324.129 219.800 C 324.293 219.140,324.602 218.047,324.814 217.372 C 325.319 215.764,325.310 212.800,324.800 212.800 C 324.580 212.800,324.400 213.754,324.400 214.920 M246.800 216.647 C 246.800 216.977,246.620 217.136,246.400 217.000 C 246.180 216.864,246.000 216.483,246.000 216.153 C 246.000 215.823,246.180 215.664,246.400 215.800 C 246.620 215.936,246.800 216.317,246.800 216.647 M322.800 222.424 C 322.800 223.137,322.967 223.544,323.200 223.400 C 323.420 223.264,323.600 222.713,323.600 222.176 C 323.600 221.639,323.420 221.200,323.200 221.200 C 322.980 221.200,322.800 221.751,322.800 222.424 M256.800 225.800 C 256.800 226.130,256.980 226.400,257.200 226.400 C 257.420 226.400,257.600 226.130,257.600 225.800 C 257.600 225.470,257.420 225.200,257.200 225.200 C 256.980 225.200,256.800 225.470,256.800 225.800 M262.698 231.435 C 262.268 231.865,262.331 233.600,262.776 233.600 C 263.349 233.600,263.499 233.098,263.235 232.069 C 263.104 231.556,262.862 231.271,262.698 231.435 M212.000 245.600 C 212.000 246.486,211.699 246.584,210.800 245.994 C 210.267 245.644,210.267 245.556,210.800 245.206 C 211.699 244.616,212.000 244.714,212.000 245.600 M202.800 251.600 C 202.800 251.820,202.530 252.000,202.200 252.000 C 201.870 252.000,201.600 252.191,201.600 252.424 C 201.600 252.657,201.422 252.737,201.204 252.602 C 200.954 252.448,200.991 252.149,201.304 251.794 C 201.881 251.138,202.800 251.019,202.800 251.600 M292.600 257.200 C 292.464 257.420,292.083 257.600,291.753 257.600 C 291.423 257.600,291.264 257.420,291.400 257.200 C 291.536 256.980,291.917 256.800,292.247 256.800 C 292.577 256.800,292.736 256.980,292.600 257.200 M301.600 259.000 C 301.600 259.550,301.780 260.000,302.000 260.000 C 302.220 260.000,302.400 259.550,302.400 259.000 C 302.400 258.450,302.220 258.000,302.000 258.000 C 301.780 258.000,301.600 258.450,301.600 259.000 M191.462 260.331 C 191.098 260.734,190.800 261.259,190.800 261.498 C 190.800 261.738,190.665 261.993,190.500 262.067 C 190.335 262.140,189.774 263.100,189.253 264.200 C 188.732 265.300,187.967 266.892,187.553 267.738 C 187.139 268.584,186.800 269.788,186.800 270.414 C 186.800 271.040,186.620 271.664,186.400 271.800 C 186.161 271.948,186.000 274.596,186.000 278.400 C 186.000 282.204,186.161 284.852,186.400 285.000 C 186.745 285.213,187.065 276.038,186.821 272.938 C 186.783 272.464,186.943 271.959,187.176 271.815 C 187.409 271.671,187.601 271.248,187.602 270.876 C 187.604 270.504,187.873 269.686,188.200 269.058 C 188.528 268.430,188.706 267.771,188.595 267.593 C 188.485 267.414,188.605 267.198,188.863 267.112 C 189.120 267.027,189.380 266.614,189.442 266.195 C 189.664 264.681,190.510 263.581,191.268 263.822 C 191.838 264.002,191.981 263.852,191.931 263.126 C 191.896 262.617,192.001 261.615,192.165 260.900 C 192.508 259.408,192.386 259.310,191.462 260.331 M296.580 263.064 C 295.638 263.753,295.200 263.743,295.200 263.033 C 295.200 262.374,295.958 262.028,296.756 262.323 C 297.194 262.485,297.157 262.642,296.580 263.064 M294.597 264.810 C 294.402 265.422,294.195 265.555,293.897 265.257 C 293.599 264.959,293.628 264.648,293.994 264.207 C 294.661 263.404,294.951 263.694,294.597 264.810 M299.600 266.274 C 299.600 267.067,298.075 268.800,297.377 268.800 C 296.753 268.800,296.419 267.067,296.883 266.238 C 297.380 265.350,299.600 265.379,299.600 266.274 M230.300 275.476 C 229.915 275.576,229.285 275.576,228.900 275.476 C 228.515 275.375,228.830 275.293,229.600 275.293 C 230.370 275.293,230.685 275.375,230.300 275.476 M186.800 286.405 C 186.800 286.848,186.964 287.523,187.164 287.905 C 187.365 288.287,188.384 290.379,189.429 292.554 C 191.995 297.892,198.778 306.000,200.679 306.000 C 200.966 306.000,201.200 306.159,201.200 306.353 C 201.200 306.548,201.515 306.810,201.900 306.936 C 202.285 307.062,203.370 307.623,204.311 308.182 C 206.056 309.221,207.200 309.482,207.200 308.843 C 207.200 308.647,206.753 308.375,206.207 308.238 C 205.661 308.101,204.603 307.451,203.855 306.794 C 203.106 306.137,202.198 305.600,201.836 305.600 C 200.968 305.600,198.944 303.783,194.300 298.834 C 192.815 297.252,191.600 295.697,191.600 295.378 C 191.600 295.060,191.420 294.800,191.200 294.800 C 190.980 294.800,190.800 294.374,190.800 293.854 C 190.800 293.334,190.466 292.479,190.057 291.954 C 189.648 291.429,189.072 290.325,188.777 289.500 C 188.481 288.675,188.095 288.000,187.920 288.000 C 187.744 288.000,187.600 287.460,187.600 286.800 C 187.600 286.140,187.420 285.600,187.200 285.600 C 186.980 285.600,186.800 285.962,186.800 286.405 M241.600 288.424 C 241.600 288.851,241.420 289.200,241.200 289.200 C 240.980 289.200,240.800 288.739,240.800 288.176 C 240.800 287.596,240.973 287.260,241.200 287.400 C 241.420 287.536,241.600 287.997,241.600 288.424 M256.800 300.800 C 256.800 301.240,256.980 301.600,257.200 301.600 C 257.420 301.600,257.600 301.409,257.600 301.176 C 257.600 300.943,257.781 300.865,258.003 301.002 C 258.255 301.158,258.191 301.466,257.832 301.826 C 257.021 302.636,256.400 302.538,256.400 301.600 C 256.400 301.013,256.133 300.800,255.400 300.800 C 254.850 300.800,254.400 300.620,254.400 300.400 C 254.400 300.180,254.940 300.000,255.600 300.000 C 256.533 300.000,256.800 300.178,256.800 300.800 M207.600 309.371 C 207.600 309.688,210.118 310.800,210.838 310.800 C 211.231 310.800,211.664 310.980,211.800 311.200 C 211.936 311.420,212.667 311.600,213.424 311.600 C 214.181 311.600,214.800 311.780,214.800 312.000 C 214.800 312.220,215.599 312.400,216.576 312.400 C 217.553 312.400,218.464 312.220,218.600 312.000 C 218.751 311.756,218.145 311.600,217.047 311.600 C 216.057 311.600,215.136 311.420,215.000 311.200 C 214.864 310.980,214.133 310.800,213.376 310.800 C 212.619 310.800,212.000 310.648,212.000 310.463 C 212.000 310.278,211.304 309.918,210.454 309.663 C 208.883 309.193,207.600 309.061,207.600 309.371 M232.000 311.200 C 232.000 311.420,232.619 311.600,233.376 311.600 C 234.133 311.600,234.864 311.420,235.000 311.200 C 235.149 310.958,234.604 310.800,233.624 310.800 C 232.731 310.800,232.000 310.980,232.000 311.200 M225.365 311.944 C 225.674 312.443,231.087 312.506,231.392 312.014 C 231.560 311.742,230.534 311.600,228.400 311.600 C 226.614 311.600,225.248 311.755,225.365 311.944 " stroke="none" fill="#507cfb" fill-rule="evenodd"></path></g></svg>